<svg width="231" height="45" viewBox="0 0 231 45" fill="none" xmlns="http://www.w3.org/2000/svg">
<g id="Frame" clip-path="url(#clip0_415_1288)">
<path id="Vector" d="M59.9989 35.3166C59.9712 34.6497 59.5157 34.0807 58.8658 33.9003C54.2617 32.622 51.4902 30.8376 49.976 29.5655C49.457 29.1294 48.9914 28.6763 48.5924 28.2192L48.083 27.6357L48.5092 26.9904L55.2935 16.7164C55.672 16.1432 55.6256 15.4066 55.1779 14.8841C54.8816 14.5381 54.4486 14.3399 53.9898 14.3399C53.7751 14.3399 53.5659 14.3833 53.3676 14.4688C49.6553 16.0709 45.1065 16.9181 40.2125 16.9184C39.3612 16.9184 38.4909 16.8923 37.6264 16.8409L36.8132 16.7924L36.6682 16.0006C35.9027 11.8145 33.9431 8.63054 30.8439 6.53712C27.6828 4.40196 23.2493 3.3194 17.6666 3.3194C14.4632 3.3194 11.5364 4.06544 9.64548 4.69111L8.38766 5.10728L8.28241 3.80088C8.11235 1.68698 6.29612 0.03125 4.14782 0.03125C1.86081 0.03125 0 1.86958 0 4.12895C0 5.50143 0.697351 6.7794 1.86548 7.54746L2.23515 7.79051L2.31215 8.22256L7.7463 38.6673C7.87774 39.4031 8.52169 39.937 9.27789 39.937H11.3518C11.8127 39.937 12.2469 39.7369 12.543 39.3881C12.8396 39.0391 12.9635 38.5819 12.8834 38.1335L11.4417 30.056L11.3106 29.3211L11.9781 28.9723C12.7784 28.5543 17.0449 26.4694 22.478 26.4694C23.2589 26.4694 24.0402 26.5131 24.8003 26.5994L25.5689 26.6868L25.7032 27.4396L26.9911 34.655C27.2579 35.9753 28.1937 36.8077 28.9821 37.1465C29.6755 37.4454 35.9017 40.0312 43.6788 40.0312C49.4528 40.0312 54.4484 38.4879 58.9869 36.8201C59.6199 36.5873 60.0266 35.983 59.9989 35.3166Z" fill="#122A4E"/>
<path id="Vector_2" fill-rule="evenodd" clip-rule="evenodd" d="M18.7806 17.4277C24.6786 17.0416 32.1518 17.9791 37.4453 24.104C37.9129 24.6451 37.5883 24.9209 38.0193 25.5456V26.3733L37.244 26.8953C32.4866 20.0002 25.0534 18.8754 18.9077 19.2772C16.196 19.4726 13.8133 20.0919 12.1061 20.6646C11.2536 20.9506 10.5736 21.2236 10.11 21.4235C9.87835 21.5234 9.70102 21.6049 9.58356 21.6604C9.52484 21.6882 9.48111 21.7094 9.45307 21.7232C9.43905 21.7301 9.42895 21.7352 9.42287 21.7382L9.4164 21.7415C9.4164 21.7415 9.41673 21.7413 8.98586 20.918C8.55499 20.0947 8.55542 20.0944 8.55542 20.0944L8.55729 20.0935L8.56114 20.0915L8.57347 20.0853C8.58374 20.0802 8.59808 20.073 8.61642 20.064C8.6531 20.046 8.70575 20.0204 8.7737 19.9883C8.90958 19.9241 9.10671 19.8336 9.35953 19.7246C9.86497 19.5067 10.5942 19.2142 11.5027 18.9094C13.3167 18.3008 15.8612 17.6377 18.7745 17.4282L18.7775 17.4279L18.7806 17.4277Z" fill="#122A4E"/>
<path id="Vector_3" fill-rule="evenodd" clip-rule="evenodd" d="M18.0991 10.6778C24.4913 10.4906 32.5051 11.6136 36.7117 18.5776C37.1702 19.3366 36.5486 19.7163 36.9095 20.6199L37.0717 21.4087L36.1991 21.749C32.9999 13.7413 25.1118 12.3273 18.1573 12.5306C15.3689 12.6282 12.8467 13.2268 11.0155 13.8055C10.1017 14.0943 9.36544 14.3764 8.8607 14.5848C8.60846 14.6889 8.41444 14.7745 8.28542 14.8331C8.22092 14.8624 8.1727 14.8849 8.14161 14.8996C8.12606 14.907 8.1148 14.9124 8.10793 14.9157L8.10094 14.9191C8.10094 14.9191 8.10061 14.9193 7.68266 14.0895C7.2647 13.2597 7.26514 13.2595 7.26514 13.2595L7.26708 13.2585L7.27115 13.2565L7.28438 13.2501C7.29544 13.2448 7.31097 13.2373 7.33085 13.2279C7.37062 13.2091 7.42783 13.1824 7.50165 13.1489C7.64925 13.0818 7.86336 12.9875 8.13713 12.8744C8.68439 12.6485 9.47162 12.3472 10.4438 12.0399C12.3841 11.4268 15.083 10.783 18.0937 10.6779L18.0964 10.6778H18.0991Z" fill="#122A4E"/>
<path id="Vector_4" d="M5.612 6.24233C6.29302 5.78082 6.73994 5.00636 6.73994 4.12894C6.73994 2.71446 5.57933 1.56787 4.14756 1.56787C2.71579 1.56787 1.55518 2.71446 1.55518 4.12894C1.55518 5.36055 2.43529 6.38933 3.60808 6.63443L9.27789 38.4001H11.3518L5.612 6.24233Z" fill="#122A4E"/>
<path id="Vector_5" d="M8.33618 12.7928L7.34875 7.26057C7.34875 7.26057 12.0789 4.85547 17.666 4.85547C24.9249 4.85547 33.4474 6.53655 35.1672 16.4437C35.1681 16.4494 35.1691 16.4551 35.1701 16.4608C30.7382 11.3795 23.778 10.5114 18.098 10.6777L18.0954 10.6778L18.0927 10.6779C15.082 10.7829 12.3831 11.4267 10.4428 12.0399C9.58337 12.3114 8.86853 12.5784 8.33618 12.7928Z" fill="#122A4E"/>
<path id="Vector_6" d="M8.67017 14.6643L9.55828 19.6401C10.0489 19.4339 10.7066 19.1766 11.5016 18.9099C13.3156 18.3014 15.8601 17.6382 18.7734 17.4287L18.7764 17.4285L18.7795 17.4283C24.2678 17.069 31.1202 17.8558 36.3109 22.9022C36.2194 22.3929 36.1266 21.8749 36.0331 21.3519C32.7345 13.6946 24.994 12.331 18.1562 12.5308C15.3678 12.6284 12.8456 13.227 11.0144 13.8057C10.1006 14.0945 9.36437 14.3766 8.85963 14.585C8.79228 14.6128 8.72909 14.6393 8.67017 14.6643Z" fill="#122A4E"/>
<path id="Vector_7" d="M36.9592 26.4957C32.1937 19.9571 24.9315 18.8838 18.9067 19.2777C16.195 19.4731 13.8123 20.0924 12.1051 20.6652C11.2526 20.9512 10.5726 21.2242 10.109 21.4241C10.031 21.4577 9.95905 21.4893 9.89355 21.5185L11.0054 27.7473C11.0054 27.7473 25.523 19.4553 37.8257 31.3387C37.6659 30.4048 37.3575 28.6989 36.9774 26.5961C36.9714 26.5627 36.9653 26.5293 36.9592 26.4957Z" fill="#122A4E"/>
<path id="Vector_8" d="M29.6262 35.7474C29.6262 35.7474 35.8487 38.4944 43.679 38.4944C48.9556 38.4944 53.6079 37.157 58.4447 35.3796C54.8511 34.3821 52.2615 33.0827 50.4204 31.8315C46.823 32.6233 43.1833 32.774 39.5519 32.3499C39.6303 32.8015 39.7082 33.2532 39.7855 33.705L29.6262 35.7474Z" fill="#122A4E"/>
<path id="Vector_9" d="M39.2286 30.5023C42.3474 30.9178 45.4635 30.887 48.5462 30.3685C46.8102 28.8018 46.2605 27.5825 46.2605 27.5825L48.2444 24.5781C44.2363 25.519 40.8195 25.4257 38.2993 25.2995C38.6114 27.0333 38.9228 28.7673 39.2286 30.5023Z" fill="#122A4E"/>
<path id="Vector_10" d="M37.9731 23.4878C40.9025 23.6404 44.9374 23.8126 49.7422 22.31L53.99 15.877C48.7912 18.1207 42.6838 18.7387 37.0552 18.3441C37.3572 20.0593 37.6647 21.7737 37.9731 23.4878Z" fill="#122A4E"/>
<path id="Vector_11" d="M142.45 19.3877V37.8556H145.114V19.3877H142.45Z" fill="#122A4E"/>
<path id="Vector_12" d="M142.378 16.1833C142.69 16.4474 143.158 16.5793 143.782 16.5793C144.382 16.5793 144.838 16.4474 145.15 16.1833C145.462 15.9194 145.618 15.5354 145.618 15.0313C145.618 14.5273 145.462 14.1434 145.15 13.8794C144.838 13.6153 144.37 13.4834 143.746 13.4834C143.146 13.4834 142.69 13.6153 142.378 13.8794C142.066 14.1434 141.91 14.5154 141.91 14.9953C141.91 15.4994 142.066 15.8954 142.378 16.1833Z" fill="#122A4E"/>
<path id="Vector_13" fill-rule="evenodd" clip-rule="evenodd" d="M148.98 43.0398L149.016 28.1718L148.98 19.3878H151.536L151.104 25.0758H151.464C151.776 23.6357 152.232 22.4597 152.832 21.5477C153.432 20.6357 154.152 19.9638 154.992 19.5317C155.856 19.0997 156.828 18.8838 157.908 18.8838C159.372 18.8838 160.656 19.2557 161.76 19.9998C162.888 20.7197 163.764 21.7998 164.388 23.2398C165.012 24.6798 165.324 26.4437 165.324 28.5317C165.324 30.6198 165.012 32.3958 164.388 33.8597C163.788 35.3237 162.948 36.4398 161.868 37.2078C160.788 37.9518 159.528 38.3237 158.088 38.3237C156.768 38.3237 155.652 38.0238 154.74 37.4237C153.828 36.8237 153.096 35.9957 152.544 34.9398C152.016 33.8597 151.644 32.6357 151.428 31.2678H150.996C151.14 32.2758 151.26 33.2118 151.356 34.0758C151.452 34.9158 151.524 35.6958 151.572 36.4158C151.62 37.1357 151.644 37.8077 151.644 38.4318V43.0398H148.98ZM157.476 35.8757C158.556 35.8757 159.468 35.5878 160.212 35.0117C160.98 34.4117 161.568 33.5718 161.976 32.4918C162.408 31.3878 162.624 30.0558 162.624 28.4957C162.624 27.0317 162.432 25.7717 162.048 24.7158C161.664 23.6357 161.088 22.8077 160.32 22.2318C159.576 21.6317 158.64 21.3318 157.512 21.3318C156.528 21.3318 155.664 21.5598 154.92 22.0158C154.2 22.4478 153.6 23.0117 153.12 23.7078C152.664 24.3798 152.316 25.0997 152.076 25.8678C151.836 26.6357 151.716 27.3557 151.716 28.0277V28.4237C151.716 28.8318 151.776 29.3597 151.896 30.0078C152.016 30.6317 152.208 31.2798 152.472 31.9518C152.736 32.6238 153.084 33.2598 153.516 33.8597C153.972 34.4597 154.524 34.9518 155.172 35.3358C155.844 35.6958 156.612 35.8757 157.476 35.8757Z" fill="#122A4E"/>
<path id="Vector_14" d="M172.333 37.9277C173.317 38.1918 174.409 38.3237 175.609 38.3237C177.145 38.3237 178.477 38.1198 179.605 37.7118C180.733 37.2798 181.609 36.6677 182.233 35.8757C182.857 35.0837 183.169 34.1238 183.169 32.9957C183.169 31.9638 182.953 31.1238 182.521 30.4757C182.113 29.8278 181.561 29.3118 180.865 28.9277C180.169 28.5438 179.389 28.2557 178.525 28.0637C177.685 27.8478 176.833 27.6558 175.969 27.4878C174.985 27.3198 174.085 27.1278 173.269 26.9117C172.453 26.6958 171.805 26.3838 171.325 25.9757C170.845 25.5438 170.605 24.9437 170.605 24.1758C170.605 23.2398 171.001 22.5078 171.793 21.9797C172.609 21.4518 173.677 21.1877 174.997 21.1877C175.981 21.1877 176.845 21.3438 177.589 21.6558C178.357 21.9678 178.945 22.4597 179.353 23.1317C179.785 23.7798 179.977 24.6198 179.929 25.6517L182.341 25.2197C182.389 23.8037 182.101 22.6278 181.477 21.6918C180.853 20.7557 179.989 20.0598 178.885 19.6038C177.781 19.1238 176.533 18.8838 175.141 18.8838C173.701 18.8838 172.441 19.1118 171.361 19.5678C170.305 20.0238 169.489 20.6598 168.913 21.4757C168.337 22.2918 168.049 23.2517 168.049 24.3557C168.049 25.3397 168.241 26.1438 168.625 26.7678C169.033 27.3917 169.573 27.8958 170.245 28.2798C170.941 28.6398 171.721 28.9398 172.585 29.1798C173.449 29.3958 174.325 29.5878 175.213 29.7557C176.221 29.9478 177.133 30.1638 177.949 30.4038C178.765 30.6198 179.401 30.9318 179.857 31.3397C180.337 31.7478 180.577 32.3358 180.577 33.1038C180.577 33.9918 180.157 34.7118 179.317 35.2638C178.477 35.7918 177.277 36.0558 175.717 36.0558C174.589 36.0558 173.593 35.8998 172.729 35.5878C171.889 35.2517 171.253 34.7357 170.821 34.0398C170.389 33.3438 170.221 32.4077 170.317 31.2318L167.833 31.5558C167.761 32.7318 167.905 33.7517 168.265 34.6157C168.625 35.4797 169.141 36.1877 169.813 36.7398C170.509 37.2678 171.349 37.6638 172.333 37.9277Z" fill="#122A4E"/>
<path id="Vector_15" d="M204.89 37.8557V29.0718L204.818 19.3878H207.374L206.798 27.5238H207.194C207.41 25.5558 207.77 23.9358 208.274 22.6638C208.802 21.3917 209.486 20.4437 210.326 19.8198C211.166 19.1958 212.174 18.8838 213.35 18.8838C214.598 18.8838 215.606 19.2197 216.374 19.8917C217.142 20.5637 217.682 21.5477 217.994 22.8438C218.33 24.1157 218.438 25.6638 218.318 27.4878H218.714C218.882 25.5678 219.218 23.9718 219.722 22.6997C220.226 21.4277 220.91 20.4797 221.774 19.8557C222.638 19.2078 223.706 18.8838 224.978 18.8838C225.914 18.8838 226.742 19.0637 227.462 19.4237C228.182 19.7838 228.782 20.3358 229.262 21.0797C229.742 21.7998 230.102 22.7118 230.342 23.8158C230.582 24.9198 230.702 26.1918 230.702 27.6317V37.8557H228.038V28.0637C228.038 26.5277 227.906 25.2678 227.642 24.2838C227.402 23.2998 227.018 22.5797 226.49 22.1238C225.962 21.6438 225.278 21.4038 224.438 21.4038C223.334 21.4038 222.386 21.8118 221.594 22.6278C220.826 23.4437 220.226 24.5837 219.794 26.0477C219.386 27.4878 219.158 29.2037 219.11 31.1958V37.8557H216.482V28.0277C216.482 26.5398 216.35 25.3037 216.086 24.3198C215.822 23.3358 215.426 22.6038 214.898 22.1238C214.394 21.6438 213.722 21.4038 212.882 21.4038C211.802 21.4038 210.866 21.8118 210.074 22.6278C209.306 23.4198 208.694 24.5598 208.238 26.0477C207.806 27.5117 207.566 29.2398 207.518 31.2318V37.8557H204.89Z" fill="#122A4E"/>
<path id="Vector_16" d="M192.102 38.3236C189.942 38.3236 188.346 37.5437 187.314 35.9837C186.306 34.4236 185.802 32.0237 185.802 28.7837V19.3877H188.502V28.7477C188.502 31.2196 188.826 33.0316 189.474 34.1836C190.122 35.3117 191.19 35.8756 192.678 35.8756C193.566 35.8756 194.346 35.6717 195.018 35.2637C195.69 34.8317 196.266 34.2077 196.746 33.3916C197.226 32.5757 197.598 31.5437 197.862 30.2957C198.126 29.0476 198.27 27.5957 198.294 25.9397V19.3877H200.958V28.6757L200.994 37.8556H198.474L199.05 30.4037H198.654C198.414 32.2277 198.006 33.7277 197.43 34.9037C196.878 36.0557 196.158 36.9197 195.27 37.4956C194.406 38.0476 193.35 38.3236 192.102 38.3236Z" fill="#122A4E"/>
<path id="Vector_17" fill-rule="evenodd" clip-rule="evenodd" d="M130.347 38.3595C128.547 38.3595 126.951 37.9876 125.559 37.2436C124.167 36.4996 123.075 35.3956 122.283 33.9316C121.491 32.4676 121.095 30.6436 121.095 28.4595C121.095 26.2276 121.503 24.3796 122.319 22.9156C123.135 21.4516 124.239 20.3595 125.631 19.6396C127.023 18.9196 128.595 18.5596 130.347 18.5596C132.123 18.5596 133.707 18.9316 135.099 19.6756C136.491 20.4196 137.583 21.5236 138.375 22.9876C139.167 24.4516 139.563 26.2875 139.563 28.4955C139.563 30.7276 139.155 32.5756 138.339 34.0396C137.547 35.5036 136.443 36.5956 135.027 37.3156C133.635 38.0115 132.075 38.3595 130.347 38.3595ZM130.455 34.8676C131.415 34.8676 132.219 34.6276 132.867 34.1476C133.539 33.6675 134.055 32.9716 134.415 32.0596C134.775 31.1236 134.955 30.0076 134.955 28.7116C134.955 27.3436 134.763 26.1796 134.379 25.2195C134.019 24.2596 133.479 23.5156 132.759 22.9876C132.063 22.4595 131.223 22.1956 130.239 22.1956C129.279 22.1956 128.463 22.4476 127.791 22.9516C127.119 23.4316 126.603 24.1396 126.243 25.0756C125.883 25.9876 125.703 27.0916 125.703 28.3876C125.703 30.4275 126.123 32.0236 126.963 33.1756C127.803 34.3035 128.967 34.8676 130.455 34.8676Z" fill="#122A4E"/>
<path id="Vector_18" fill-rule="evenodd" clip-rule="evenodd" d="M105.179 43.1836C106.427 43.5197 108.095 43.6876 110.183 43.6876C112.511 43.6876 114.431 43.4717 115.943 43.0397C117.455 42.6316 118.583 41.9956 119.327 41.1316C120.095 40.2677 120.479 39.1637 120.479 37.8197C120.479 36.6197 120.215 35.6957 119.687 35.0476C119.183 34.3756 118.547 33.8957 117.779 33.6077C117.035 33.3197 116.291 33.1516 115.547 33.1037C114.803 33.0316 114.203 32.9956 113.747 32.9956H108.275C107.915 32.9956 107.579 32.9837 107.267 32.9596C106.979 32.9116 106.739 32.8517 106.547 32.7797C106.379 32.6836 106.295 32.5397 106.295 32.3477C106.295 32.1316 106.439 31.9037 106.727 31.6637C107.039 31.3997 107.507 31.1237 108.131 30.8357C108.635 30.9317 109.103 31.0037 109.535 31.0517C109.967 31.0757 110.399 31.0877 110.831 31.0877C112.487 31.0877 113.879 30.8837 115.007 30.4756C116.159 30.0437 117.023 29.4557 117.599 28.7117C118.175 27.9436 118.463 27.0796 118.463 26.1197C118.463 25.1597 118.115 24.3556 117.419 23.7077C116.723 23.0357 115.523 22.5557 113.819 22.2677V21.8357L120.047 22.6637V18.9917H110.687C108.959 18.9917 107.483 19.2556 106.259 19.7837C105.035 20.2876 104.099 21.0077 103.451 21.9436C102.803 22.8556 102.479 23.9116 102.479 25.1117C102.479 26.4796 102.863 27.6077 103.631 28.4956C104.423 29.3596 105.539 29.8997 106.979 30.1156V30.5476C105.467 30.7397 104.387 31.0877 103.739 31.5917C103.091 32.0957 102.767 32.6717 102.767 33.3197C102.767 34.0157 103.103 34.5437 103.775 34.9037C104.471 35.2397 105.467 35.4076 106.763 35.4076V35.8036C105.083 36.0437 103.811 36.4997 102.947 37.1717C102.107 37.8437 101.687 38.7077 101.687 39.7637C101.687 40.5557 101.951 41.2397 102.479 41.8157C103.031 42.4157 103.931 42.8717 105.179 43.1836ZM114.035 39.5116C113.147 39.6797 111.875 39.7637 110.219 39.7637C109.283 39.7637 108.467 39.7277 107.771 39.6557C107.099 39.5836 106.571 39.4276 106.187 39.1876C105.803 38.9477 105.611 38.5877 105.611 38.1077C105.611 37.6277 105.815 37.2077 106.223 36.8477C106.631 36.4877 107.351 36.1516 108.383 35.8396H113.027C113.339 35.8396 113.687 35.8517 114.071 35.8756C114.455 35.8997 114.827 35.9717 115.187 36.0917C115.571 36.1876 115.883 36.3677 116.123 36.6316C116.363 36.8717 116.483 37.2317 116.483 37.7117C116.483 38.1437 116.303 38.5157 115.943 38.8277C115.583 39.1397 114.947 39.3677 114.035 39.5116ZM113.207 27.5957C112.607 28.1717 111.755 28.4596 110.651 28.4596C109.907 28.4596 109.259 28.3277 108.707 28.0636C108.155 27.7997 107.723 27.4276 107.411 26.9477C107.123 26.4436 106.979 25.8797 106.979 25.2556C106.979 24.2957 107.303 23.5037 107.951 22.8797C108.599 22.2556 109.475 21.9436 110.579 21.9436C111.683 21.9436 112.547 22.2556 113.171 22.8797C113.819 23.5037 114.143 24.3076 114.143 25.2917C114.143 26.2516 113.831 27.0197 113.207 27.5957Z" fill="#122A4E"/>
<path id="Vector_19" fill-rule="evenodd" clip-rule="evenodd" d="M91.2702 38.3595C89.4702 38.3595 87.8742 37.9876 86.4822 37.2436C85.0902 36.4996 83.9982 35.3956 83.2062 33.9316C82.4142 32.4676 82.0182 30.6436 82.0182 28.4595C82.0182 26.2276 82.4262 24.3796 83.2422 22.9156C84.0582 21.4516 85.1622 20.3595 86.5542 19.6396C87.9462 18.9196 89.5182 18.5596 91.2702 18.5596C93.0462 18.5596 94.6302 18.9316 96.0222 19.6756C97.4142 20.4196 98.5062 21.5236 99.2982 22.9876C100.09 24.4516 100.486 26.2875 100.486 28.4955C100.486 30.7276 100.078 32.5756 99.2622 34.0396C98.4702 35.5036 97.3662 36.5956 95.9502 37.3156C94.5582 38.0115 92.9982 38.3595 91.2702 38.3595ZM91.3782 34.8676C92.3382 34.8676 93.1422 34.6276 93.7902 34.1476C94.4622 33.6675 94.9782 32.9716 95.3382 32.0596C95.6982 31.1236 95.8782 30.0076 95.8782 28.7116C95.8782 27.3436 95.6862 26.1796 95.3022 25.2195C94.9422 24.2596 94.4022 23.5156 93.6822 22.9876C92.9862 22.4595 92.1462 22.1956 91.1622 22.1956C90.2022 22.1956 89.3862 22.4476 88.7142 22.9516C88.0422 23.4316 87.5262 24.1396 87.1662 25.0756C86.8062 25.9876 86.6262 27.0916 86.6262 28.3876C86.6262 30.4275 87.0462 32.0236 87.8862 33.1756C88.7262 34.3035 89.8902 34.8676 91.3782 34.8676Z" fill="#122A4E"/>
<path id="Vector_20" d="M66.9648 14.0957V37.8556H81.5089V33.9317H71.5368V14.0957H66.9648Z" fill="#122A4E"/>
</g>
<defs>
<clipPath id="clip0_415_1288">
<rect width="231" height="44" fill="white" transform="translate(0 0.03125)"/>
</clipPath>
</defs>
</svg>
