<svg width="101" height="25" viewBox="0 0 101 25" fill="none" xmlns="http://www.w3.org/2000/svg">
<g id="Frame" clip-path="url(#clip0_415_1237)">
<path id="Vector" d="M10.6137 3.61896C10.4439 3.21816 10.1617 2.66132 9.74661 2.05927C9.29068 1.39789 8.66907 0.673889 7.8504 0.0379206C8.2442 0.0208532 8.62131 0.0375819 8.97013 0.0761777C9.22759 0.327852 9.45624 0.601694 9.65584 0.882828C10.2117 1.66568 10.5253 2.48138 10.6078 2.97473C10.6117 2.99851 10.6204 3.02068 10.6329 3.04063C10.6454 3.02068 10.6541 2.99851 10.6581 2.97473C10.7405 2.48138 11.0542 1.66568 11.61 0.882828C11.8096 0.601694 12.0382 0.327852 12.2957 0.0761777C12.6445 0.0375819 13.0216 0.0208532 13.4154 0.0379206C12.5967 0.673889 11.9751 1.39789 11.5192 2.05927C11.1042 2.66132 10.8219 3.21816 10.6521 3.61896V3.71149C10.6459 3.69617 10.6395 3.68058 10.6329 3.66471C10.6263 3.68058 10.6199 3.69617 10.6137 3.71149V3.61896Z" fill="#122A4E"/>
<path id="Vector_2" d="M10.6329 0.475775C10.3872 0.373884 10.0542 0.268554 9.65973 0.186035C9.79829 0.346421 9.92615 0.510779 10.0434 0.675947C10.2707 0.996172 10.4609 1.32303 10.6137 1.63548V1.71524C10.6201 1.70187 10.6264 1.68846 10.6329 1.67502C10.6394 1.68846 10.6458 1.70187 10.6521 1.71524V1.63548C10.805 1.32303 10.9951 0.996172 11.2224 0.675947C11.3397 0.510779 11.4676 0.346421 11.6061 0.186035C11.2116 0.268554 10.8787 0.373884 10.6329 0.475775Z" fill="#122A4E"/>
<path id="Vector_3" d="M9.35604 2.26196C8.85756 1.53885 8.15998 0.748155 7.22345 0.09375C7.0191 0.121539 6.81206 0.159362 6.60382 0.208717C7.31803 0.573252 7.9033 1.12365 8.40781 1.68663C8.68137 1.99188 8.93833 2.30943 9.18023 2.60837C9.28281 2.73513 9.38274 2.85863 9.48001 2.97633C9.72692 3.27511 9.95688 3.53684 10.1809 3.74189C10.0223 3.37018 9.75523 2.84105 9.35604 2.26196Z" fill="#122A4E"/>
<path id="Vector_4" d="M8.04853 1.92884C7.45708 1.26886 6.80047 0.684737 6.00094 0.384277C5.73623 0.476529 5.47181 0.589543 5.21063 0.726352C5.9233 0.860534 6.54005 1.24369 7.07403 1.67798C7.45944 1.99143 7.81813 2.34613 8.14307 2.66746C8.26721 2.79021 8.38649 2.90816 8.50038 3.01701C8.71045 3.21779 8.90233 3.38821 9.08113 3.51463C9.0906 3.52132 9.09998 3.52785 9.10927 3.53423C9.21971 3.5507 9.33467 3.57574 9.45541 3.60957C9.34003 3.4811 9.22517 3.34544 9.11015 3.20626C9.00752 3.08208 8.90463 2.95491 8.80038 2.82608C8.56127 2.53055 8.31501 2.22621 8.04853 1.92884Z" fill="#122A4E"/>
<path id="Vector_5" d="M10.6329 23.6479C10.6394 23.6712 10.6458 23.6945 10.6521 23.7178C10.6521 23.6733 10.6521 23.6276 10.6521 23.5808C10.7466 23.2561 10.8649 22.9373 10.9957 22.6237C11.1575 22.2357 11.3397 21.853 11.5209 21.4767L11.5779 21.3585C11.7403 21.0216 11.9002 20.69 12.0453 20.3589C12.6727 18.9276 13.0007 17.5591 11.9954 16.0879C11.5872 16.2139 11.1035 16.2696 10.6329 16.2737C10.1623 16.2696 9.67864 16.2139 9.27039 16.0879C8.26513 17.5591 8.59313 18.9276 9.22051 20.3589C9.36565 20.69 9.52552 21.0216 9.68792 21.3585L9.74491 21.4767C9.92612 21.853 10.1083 22.2357 10.2701 22.6237C10.4009 22.9373 10.5192 23.2561 10.6137 23.5808C10.6137 23.6276 10.6137 23.6733 10.6137 23.7178C10.62 23.6945 10.6264 23.6712 10.6329 23.6479Z" fill="#122A4E"/>
<path id="Vector_6" d="M8.85188 15.9265C7.77222 17.5399 8.15715 19.044 8.79508 20.4994C8.94305 20.8369 9.1059 21.1747 9.2679 21.5107L9.32494 21.629C9.50615 22.0054 9.68444 22.3801 9.84212 22.7582C10.0183 23.1805 10.1672 23.6035 10.2644 24.0312C9.99195 23.5696 9.6879 23.1716 9.35945 22.8198C9.23042 22.5682 9.08357 22.3143 8.92892 22.0598C8.77409 21.805 8.61141 21.5495 8.44793 21.2928C8.1074 20.758 7.76333 20.2177 7.47919 19.6663C7.06095 18.8547 6.79431 18.0565 6.87758 17.2865C6.95073 16.6103 7.29626 15.9352 8.09688 15.2783C8.24702 15.5498 8.51428 15.7656 8.85188 15.9265Z" fill="#122A4E"/>
<path id="Vector_7" d="M6.42443 17.2498C6.51486 16.4137 6.96914 15.6041 7.96668 14.8477C7.96213 14.7921 7.96166 14.7347 7.96552 14.6758C7.99742 14.6401 8.06955 14.5965 8.2314 14.5518C8.39226 14.5073 8.58639 14.4758 8.81085 14.4394C8.8848 14.4274 8.96204 14.4149 9.04247 14.4012C9.35404 14.3481 9.69959 14.2789 10.0075 14.1526C10.2431 14.0559 10.464 13.9229 10.6329 13.7331C10.8018 13.9229 11.0227 14.0559 11.2583 14.1526C11.5662 14.2789 11.9118 14.3481 12.2233 14.4012C12.3038 14.4149 12.381 14.4274 12.4549 14.4394C12.6794 14.4758 12.8735 14.5073 13.0344 14.5518C13.1962 14.5965 13.2684 14.6401 13.3003 14.6758C13.3041 14.7347 13.3037 14.7921 13.2991 14.8477C14.2967 15.6041 14.7509 16.4137 14.8414 17.2498C14.9355 18.1201 14.6323 18.9929 14.2021 19.8276C13.9102 20.3941 13.5497 20.9604 13.2042 21.5033C13.1238 21.6295 13.044 21.7549 12.9663 21.8783C13.6095 21.397 14.3043 21.0008 15.0124 20.597L15.0982 20.5481C15.8209 18.9265 15.8807 17.6477 15.6157 16.6276C15.3003 15.4132 14.5176 14.537 13.7704 13.8649C13.7687 13.8666 13.7671 13.8683 13.7655 13.87C13.762 13.8736 13.7586 13.8772 13.7552 13.8806C13.6945 13.9427 13.6393 13.9927 13.5941 14.0296C13.5692 14.0499 13.544 14.0688 13.5207 14.0846C13.5043 14.0954 13.4879 14.1057 13.4697 14.1157C13.4321 14.137 13.3884 14.1541 13.3441 14.1652C13.3044 14.1752 13.2623 14.183 13.2175 14.1885C13.2024 14.184 13.1874 14.1797 13.1726 14.1756C12.9822 14.1229 12.7481 14.085 12.5162 14.0475C12.4473 14.0363 12.3784 14.0252 12.3111 14.0137C12.0042 13.9614 11.7062 13.8995 11.4528 13.7956C11.209 13.6956 11.0191 13.5618 10.903 13.3696L11.0461 12.5491C11.0907 12.2939 11.2413 12.0612 11.4809 11.9083C11.505 11.8929 11.5292 11.8776 11.5534 11.8622L11.5574 11.8596C11.8858 11.6508 12.2274 11.4336 12.5639 11.0933C12.7201 10.9354 12.7918 10.7296 12.7918 10.5215C12.5451 10.7269 12.2165 10.8416 11.8746 10.8416H9.39118C9.04931 10.8416 8.72066 10.7269 8.47399 10.5215C8.47399 10.7296 8.5457 10.9354 8.70188 11.0933C9.03844 11.4336 9.37996 11.6508 9.70835 11.8596L9.70958 11.8603C9.73476 11.8764 9.75986 11.8923 9.78487 11.9083C10.0245 12.0612 10.1751 12.2939 10.2197 12.5491L10.3629 13.3696C10.2467 13.5618 10.0568 13.6956 9.81295 13.7956C9.5596 13.8995 9.26161 13.9614 8.95474 14.0137C8.88742 14.0252 8.8187 14.0363 8.74978 14.0474C8.51788 14.085 8.28356 14.1229 8.09323 14.1756C8.07838 14.1797 8.06339 14.184 8.04831 14.1885C8.00346 14.183 7.96142 14.1752 7.9217 14.1652C7.8774 14.1541 7.83371 14.137 7.79609 14.1157C7.77788 14.1057 7.7615 14.0954 7.74511 14.0846C7.72175 14.0688 7.69656 14.0499 7.67168 14.0296C7.62647 13.9927 7.57125 13.9427 7.51057 13.8806C7.50564 13.8755 7.50058 13.8703 7.49541 13.8649C6.74816 14.537 5.96552 15.4132 5.65007 16.6276C5.3851 17.6477 5.4449 18.9265 6.16756 20.5481L6.25335 20.597C6.96154 21.0008 7.6563 21.397 8.29951 21.8783C8.22183 21.7549 8.14228 21.63 8.06194 21.5037C7.71639 20.9609 7.35557 20.3941 7.06368 19.8276C6.6335 18.9929 6.33031 18.1201 6.42443 17.2498Z" fill="#122A4E"/>
<path id="Vector_8" d="M7.22641 13.538C6.43756 14.2386 5.55637 15.192 5.20609 16.5404C4.94731 17.5366 4.98222 18.7323 5.53296 20.1814C4.97385 19.8523 4.41439 19.4993 3.87295 19.0775C3.71753 18.6559 3.64279 18.2627 3.63008 17.8951C3.59806 16.9682 3.95931 16.1783 4.46883 15.4776C4.87108 14.9244 5.3564 14.438 5.81055 13.9827C5.93659 13.8564 6.06045 13.7322 6.17925 13.6099C6.42981 13.352 6.66004 13.0998 6.83476 12.8525L6.86156 12.853C6.93074 13.0373 7.01722 13.2129 7.11917 13.3771C7.15498 13.4346 7.19099 13.4883 7.22641 13.538Z" fill="#122A4E"/>
<path id="Vector_9" d="M6.48059 12.5973C6.58817 12.4377 6.65974 12.2923 6.6945 12.1574C6.67335 11.9641 6.67246 11.769 6.69197 11.5733C6.70835 11.4098 6.73354 11.1995 6.74871 11.076L6.61611 10.976C6.5844 10.952 6.55328 10.928 6.52274 10.9038C6.51136 10.939 6.49849 10.975 6.48416 11.0118C6.40066 11.2263 6.26249 11.4811 6.05613 11.7711C5.64334 12.3512 4.95142 13.0814 3.8547 13.9249C2.54064 14.9356 2.10622 15.9422 2.12187 16.8346C2.12522 17.0257 2.14924 17.213 2.19051 17.3956C2.52826 17.8349 2.88483 18.2161 3.25384 18.5548C3.20795 18.333 3.18243 18.1172 3.17517 17.9071C3.1396 16.8776 3.54337 16.0104 4.08392 15.2671C4.50646 14.686 5.02181 14.1697 5.47858 13.7121C5.60135 13.5891 5.71989 13.4703 5.83125 13.3557C6.09802 13.0811 6.32269 12.8316 6.48059 12.5973Z" fill="#122A4E"/>
<path id="Vector_10" d="M6.13202 10.5625C6.12975 10.6338 6.10928 10.7409 6.05298 10.8856C5.98271 11.0661 5.86107 11.2936 5.66888 11.5637C5.28459 12.1038 4.62451 12.8052 3.55281 13.6295C2.24076 14.6387 1.71343 15.6809 1.6694 16.6538C1.50709 16.4023 1.35822 16.1501 1.22211 15.8977C1.22888 15.7323 1.24771 15.5678 1.27912 15.4045C1.46816 14.4218 2.11794 13.4569 3.40206 12.5816C4.50066 11.8327 5.12616 11.1312 5.48857 10.5978C5.60274 10.4298 5.69034 10.2792 5.75816 10.1499C5.86754 10.2882 5.99163 10.426 6.13202 10.5625Z" fill="#122A4E"/>
<path id="Vector_11" d="M5.43515 9.80005C5.44715 9.77376 5.45799 9.74925 5.46787 9.72642C5.33763 9.50405 5.24111 9.28267 5.17166 9.06592C5.02638 9.24999 4.83241 9.46868 4.58443 9.71533C4.07849 10.2185 3.33891 10.8469 2.30589 11.5477C1.12709 12.3474 0.651555 13.3858 0.510498 14.2623C0.612142 14.5648 0.730254 14.869 0.866042 15.1737C1.11567 14.1377 1.83239 13.1493 3.12083 12.271C4.17528 11.5522 4.76305 10.8879 5.09647 10.3972C5.26332 10.1517 5.36762 9.94796 5.43515 9.80005Z" fill="#122A4E"/>
<path id="Vector_12" d="M5.04323 8.47901C4.95954 8.64307 4.71564 8.98394 4.24146 9.45558C3.75612 9.93831 3.03793 10.5497 2.02555 11.2365C1.07659 11.8803 0.543725 12.6641 0.266962 13.4162C0.101194 12.7272 0.0171512 12.052 0 11.4035C0.250667 10.8468 0.968904 9.9887 2.53151 9.35255C3.55502 8.93586 4.30466 8.44229 4.81798 8.00218C4.89326 7.93764 4.9638 7.87394 5.02962 7.81152C5.01336 8.0199 5.01457 8.24422 5.04323 8.47901Z" fill="#122A4E"/>
<path id="Vector_13" d="M4.49805 7.7213C4.87008 7.40233 5.09345 7.12672 5.20019 6.95299C5.2462 6.8085 5.3007 6.66459 5.36345 6.52171C5.24212 6.47611 5.12629 6.42727 5.01584 6.37549C4.60561 6.6781 3.85934 7.14377 2.32679 7.67277C1.47972 7.96515 0.960256 8.40574 0.660321 8.89175C0.39315 9.32467 0.293974 9.804 0.30624 10.2644C0.763585 9.82006 1.42368 9.36735 2.33815 8.99506C3.31384 8.59785 4.02086 8.13043 4.49805 7.7213Z" fill="#122A4E"/>
<path id="Vector_14" d="M5.54193 6.15883C4.15832 5.63784 3.60879 4.66477 3.59471 3.798C3.57977 2.8773 4.1504 2.14744 4.90181 2.06462C5.23791 2.02758 5.57803 2.1751 6.07438 2.54068C6.30924 2.71367 6.56593 2.92502 6.86398 3.17042L6.89803 3.19846C7.14329 3.40038 7.41419 3.62284 7.7174 3.85968C7.58618 3.9451 7.45847 4.04147 7.3303 4.14293C7.02099 3.69995 6.19265 3.24798 4.56728 3.34137C4.44188 3.34858 4.34695 3.44262 4.35525 3.55143C4.36356 3.66023 4.47195 3.74259 4.59736 3.73538C6.28326 3.63852 6.84916 4.15842 6.98487 4.42475C6.96415 4.44242 6.94358 4.46016 6.92315 4.47796C6.55388 4.38282 6.10456 4.36342 5.68107 4.38437C5.2057 4.40788 4.73424 4.48378 4.39762 4.58113C4.27839 4.61561 4.21395 4.72743 4.2537 4.83087C4.29344 4.93432 4.42232 4.99023 4.54155 4.95574C4.83326 4.87138 5.26401 4.80051 5.70698 4.7786C6.01277 4.76347 6.31107 4.77238 6.56614 4.81094C6.14207 5.23466 5.79742 5.68913 5.54193 6.15883Z" fill="#122A4E"/>
<path id="Vector_15" d="M7.21132 2.91205C7.48354 3.13616 7.78308 3.38204 8.1217 3.64377C8.16995 3.62409 8.21906 3.60635 8.26918 3.59077C8.32835 3.5724 8.38794 3.55715 8.44825 3.54505C8.35398 3.46237 8.25899 3.37414 8.1634 3.28278C8.03919 3.16408 7.91372 3.03999 7.78587 2.91356C7.46589 2.59711 7.13084 2.26577 6.76277 1.96643C6.5338 1.7802 6.28763 1.60484 6.02664 1.4595C5.19248 0.994939 4.16576 1.30443 3.49081 1.97977C2.19338 3.27796 2.61793 4.3163 3.03141 5.24902C2.53387 5.3124 2.00595 5.67078 1.53235 6.25137C1.86075 6.07887 2.20185 5.95093 2.53316 5.85792C3.04608 5.71393 3.5427 5.65153 3.94536 5.6382C3.3978 5.08586 3.14974 4.42603 3.13964 3.80359C3.12308 2.78391 3.76305 1.79212 4.84447 1.67293C5.39084 1.61271 5.86669 1.86975 6.36894 2.23969C6.61369 2.41995 6.87876 2.63822 7.17232 2.87993L7.21132 2.91205Z" fill="#122A4E"/>
<path id="Vector_16" d="M2.67325 6.23364C2.34233 6.32654 2.00578 6.45607 1.68774 6.6325C1.12083 6.94699 0.735685 7.50155 0.514995 8.11113C0.465445 8.24799 0.418782 8.38861 0.375305 8.53272C0.73974 8.03219 1.31385 7.59788 2.15856 7.3063C3.50581 6.84127 4.21021 6.43332 4.60713 6.15679C4.54768 6.12046 4.4902 6.08316 4.43466 6.04497C4.07074 6.00768 3.39369 6.03138 2.67325 6.23364Z" fill="#122A4E"/>
<path id="Vector_17" d="M9.78186 7.35801L9.03804 9.5862C9.24341 8.96021 9.17586 8.35586 9.08741 7.9373C8.78252 7.96405 8.56001 7.94398 8.35034 7.89754C7.79714 7.77501 7.42822 7.34999 7.07693 6.94528C7.02469 6.88509 6.97282 6.82534 6.92081 6.76712C6.8494 6.68718 6.76568 6.60418 6.66602 6.51318C6.82656 6.53837 6.98357 6.56141 7.1376 6.58401C8.09009 6.72377 8.9285 6.84679 9.78186 7.35801Z" fill="#122A4E"/>
<path id="Vector_18" d="M9.03804 9.58594C9.03528 9.59436 9.03246 9.60279 9.0296 9.61123L9.03804 9.58594Z" fill="#122A4E"/>
<path id="Vector_19" d="M11.9098 2.26196C12.4083 1.53885 13.1058 0.748155 14.0424 0.09375C14.2467 0.121539 14.4538 0.159362 14.662 0.208717C13.9478 0.573252 13.3625 1.12365 12.858 1.68663C12.5845 1.99188 12.3275 2.30943 12.0856 2.60837C11.983 2.73513 11.8831 2.85863 11.7858 2.97633C11.5389 3.27511 11.3089 3.53684 11.0849 3.74189C11.2435 3.37018 11.5106 2.84105 11.9098 2.26196Z" fill="#122A4E"/>
<path id="Vector_20" d="M13.2173 1.92884C13.8088 1.26886 14.4654 0.684737 15.2649 0.384277C15.5296 0.476529 15.794 0.589543 16.0552 0.726352C15.3425 0.860534 14.7258 1.24369 14.1918 1.67798C13.8064 1.99143 13.4477 2.34613 13.1228 2.66746C12.9986 2.79021 12.8794 2.90816 12.7655 3.01701C12.5554 3.21779 12.3635 3.38821 12.1847 3.51463C12.1752 3.52132 12.1659 3.52785 12.1566 3.53423C12.0461 3.5507 11.9312 3.57574 11.8104 3.60957C11.9258 3.4811 12.0407 3.34544 12.1557 3.20626C12.2583 3.08208 12.3612 2.95493 12.4654 2.8261C12.7046 2.53057 12.9508 2.22621 13.2173 1.92884Z" fill="#122A4E"/>
<path id="Vector_21" d="M12.4139 15.9265C13.4936 17.5399 13.1087 19.044 12.4707 20.4994C12.3228 20.8369 12.1599 21.1747 11.9979 21.5107L11.9409 21.629C11.7597 22.0054 11.5814 22.3801 11.4237 22.7582C11.2476 23.1805 11.0986 23.6035 11.0015 24.0312C11.2738 23.5696 11.5779 23.1716 11.9064 22.8198C12.0354 22.5682 12.1822 22.3143 12.3369 22.0598C12.4917 21.805 12.6544 21.5495 12.8179 21.2928C13.1584 20.758 13.5025 20.2177 13.7866 19.6663C14.2049 18.8547 14.4715 18.0565 14.3882 17.2865C14.3151 16.6103 13.9695 15.9352 13.1689 15.2783C13.0188 15.5498 12.7515 15.7656 12.4139 15.9265Z" fill="#122A4E"/>
<path id="Vector_22" d="M14.0394 13.538C14.8282 14.2386 15.7094 15.192 16.0597 16.5404C16.3185 17.5366 16.2836 18.7323 15.7328 20.1814C16.292 19.8523 16.8514 19.4993 17.3929 19.0775C17.5483 18.6559 17.623 18.2627 17.6357 17.8951C17.6677 16.9682 17.3065 16.1783 16.797 15.4776C16.3947 14.9244 15.9094 14.438 15.4553 13.9827C15.3292 13.8564 15.2053 13.7322 15.0866 13.6099C14.836 13.352 14.6058 13.0998 14.4311 12.8525L14.4042 12.853C14.3351 13.0373 14.2486 13.2129 14.1466 13.3771C14.1108 13.4346 14.0748 13.4883 14.0394 13.538Z" fill="#122A4E"/>
<path id="Vector_23" d="M14.7852 12.5973C14.6777 12.4377 14.6061 12.2923 14.5713 12.1574C14.5925 11.9641 14.5934 11.769 14.5739 11.5733C14.5575 11.4098 14.5323 11.1995 14.5171 11.076L14.6497 10.976C14.6814 10.952 14.7125 10.928 14.7431 10.9038C14.7545 10.939 14.7673 10.975 14.7817 11.0118C14.8652 11.2263 15.0033 11.4811 15.2097 11.7711C15.6225 12.3512 16.3144 13.0814 17.4111 13.9249C18.7252 14.9356 19.1596 15.9422 19.144 16.8346C19.1406 17.0257 19.1166 17.213 19.0753 17.3956C18.7376 17.8349 18.381 18.2161 18.012 18.5548C18.0579 18.333 18.0834 18.1172 18.0907 17.9071C18.1262 16.8776 17.7225 16.0104 17.1819 15.2671C16.7594 14.686 16.244 14.1697 15.7872 13.7121C15.6645 13.5891 15.5459 13.4703 15.4346 13.3557C15.1678 13.0811 14.9431 12.8316 14.7852 12.5973Z" fill="#122A4E"/>
<path id="Vector_24" d="M15.1338 10.5625C15.1361 10.6338 15.1566 10.7409 15.2129 10.8856C15.2831 11.0661 15.4048 11.2936 15.597 11.5637C15.9813 12.1038 16.6413 12.8052 17.713 13.6295C19.0251 14.6387 19.5524 15.6809 19.5965 16.6538C19.7588 16.4023 19.9076 16.1501 20.0437 15.8977C20.037 15.7323 20.0181 15.5678 19.9867 15.4045C19.7977 14.4218 19.1479 13.4569 17.8638 12.5816C16.7652 11.8327 16.1397 11.1312 15.7773 10.5978C15.6631 10.4298 15.5755 10.2792 15.5077 10.1499C15.3983 10.2882 15.2742 10.426 15.1338 10.5625Z" fill="#122A4E"/>
<path id="Vector_25" d="M15.8307 9.80005C15.8187 9.77376 15.8078 9.74925 15.7979 9.72642C15.9282 9.50405 16.0247 9.28267 16.0942 9.06592C16.2394 9.24999 16.4334 9.46868 16.6814 9.71533C17.1873 10.2185 17.9269 10.8469 18.9599 11.5477C20.1387 12.3474 20.6143 13.3858 20.7553 14.2623C20.6537 14.5648 20.5356 14.869 20.3998 15.1737C20.1501 14.1377 19.4334 13.1493 18.145 12.271C17.0905 11.5522 16.5028 10.8879 16.1693 10.3972C16.0025 10.1517 15.8982 9.94796 15.8307 9.80005Z" fill="#122A4E"/>
<path id="Vector_26" d="M16.2226 8.47901C16.3063 8.64307 16.5502 8.98394 17.0244 9.45558C17.5097 9.93831 18.2279 10.5497 19.2403 11.2365C20.1892 11.8803 20.7221 12.6641 20.9989 13.4162C21.1646 12.7272 21.2487 12.052 21.2658 11.4035C21.0152 10.8468 20.2969 9.9887 18.7343 9.35255C17.7108 8.93586 16.9612 8.44229 16.4478 8.00218C16.3726 7.93764 16.302 7.87394 16.2362 7.81152C16.2525 8.0199 16.2513 8.24422 16.2226 8.47901Z" fill="#122A4E"/>
<path id="Vector_27" d="M16.7678 7.7213C16.3957 7.40233 16.1724 7.12672 16.0656 6.95299C16.0196 6.8085 15.9651 6.66459 15.9024 6.52171C16.0237 6.47611 16.1395 6.42727 16.25 6.37549C16.6602 6.6781 17.4065 7.14377 18.939 7.67277C19.7861 7.96515 20.3055 8.40574 20.6055 8.89175C20.8727 9.32467 20.9718 9.804 20.9596 10.2644C20.5022 9.82006 19.8421 9.36735 18.9277 8.99506C17.952 8.59785 17.2449 8.13043 16.7678 7.7213Z" fill="#122A4E"/>
<path id="Vector_28" d="M15.7239 6.15883C17.1075 5.63784 17.6571 4.66477 17.6711 3.798C17.6861 2.8773 17.1154 2.14744 16.364 2.06462C16.0279 2.02758 15.6878 2.1751 15.1915 2.54068C14.9566 2.71367 14.6999 2.92502 14.4019 3.17042L14.3678 3.19846C14.1226 3.40038 13.8517 3.62284 13.5484 3.85968C13.6797 3.9451 13.8074 4.04147 13.9355 4.14293C14.2449 3.69995 15.0732 3.24798 16.6986 3.34137C16.824 3.34858 16.9189 3.44262 16.9106 3.55143C16.9023 3.66023 16.7939 3.74259 16.6685 3.73538C14.9826 3.63852 14.4167 4.15842 14.281 4.42475C14.3017 4.44242 14.3223 4.46016 14.3427 4.47796C14.712 4.38282 15.1613 4.36342 15.5848 4.38437C16.0601 4.40788 16.5316 4.48378 16.8682 4.58113C16.9875 4.61561 17.0519 4.72743 17.0121 4.83087C16.9724 4.93432 16.8435 4.99023 16.7243 4.95574C16.4326 4.87138 16.0018 4.80051 15.5589 4.7786C15.2531 4.76347 14.9548 4.77238 14.6997 4.81094C15.1238 5.23466 15.4684 5.68913 15.7239 6.15883Z" fill="#122A4E"/>
<path id="Vector_29" d="M14.0545 2.91205C13.7823 3.13616 13.4828 3.38204 13.1441 3.64377C13.0959 3.62409 13.0468 3.60635 12.9967 3.59077C12.9375 3.5724 12.8779 3.55715 12.8176 3.54505C12.9119 3.46237 13.0069 3.37414 13.1025 3.28278C13.2267 3.16408 13.3521 3.03999 13.48 2.91356C13.8 2.59711 14.135 2.26577 14.5031 1.96643C14.7321 1.7802 14.9782 1.60484 15.2392 1.4595C16.0734 0.994939 17.1001 1.30443 17.775 1.97977C19.0725 3.27796 18.6479 4.3163 18.2344 5.24902C18.732 5.3124 19.2599 5.67078 19.7335 6.25137C19.4051 6.07887 19.064 5.95093 18.7327 5.85792C18.2198 5.71393 17.7232 5.65153 17.3205 5.6382C17.868 5.08586 18.1161 4.42603 18.1262 3.80359C18.1428 2.78391 17.5028 1.79212 16.4214 1.67293C15.875 1.61271 15.3992 1.86975 14.8969 2.23969C14.6522 2.41995 14.3871 2.63822 14.0935 2.87993L14.0545 2.91205Z" fill="#122A4E"/>
<path id="Vector_30" d="M18.5926 6.23364C18.9235 6.32654 19.26 6.45607 19.5781 6.63249C20.145 6.94698 20.5301 7.50156 20.7508 8.11115C20.8004 8.24801 20.847 8.38862 20.8905 8.53272C20.5261 8.03219 19.952 7.59788 19.1073 7.3063C17.76 6.84127 17.0556 6.43332 16.6587 6.15679C16.7181 6.12046 16.7756 6.08316 16.8312 6.04497C17.1951 6.00768 17.8721 6.03138 18.5926 6.23364Z" fill="#122A4E"/>
<path id="Vector_31" d="M11.484 7.35801L12.2278 9.5862C12.2306 9.59462 12.2334 9.60305 12.2362 9.61149L12.2278 9.5862C12.0224 8.96021 12.09 8.35586 12.1784 7.9373C12.4833 7.96405 12.7058 7.94398 12.9155 7.89754C13.4687 7.77501 13.8376 7.34999 14.1889 6.94527C14.2412 6.88509 14.293 6.82534 14.345 6.76712C14.4164 6.68718 14.5002 6.60418 14.5998 6.51318C14.4393 6.53837 14.2823 6.56141 14.1282 6.58401C13.1758 6.72377 12.3373 6.84679 11.484 7.35801Z" fill="#122A4E"/>
<path id="Vector_32" fill-rule="evenodd" clip-rule="evenodd" d="M32.1432 13.8838C31.9112 13.3081 31.7952 12.6765 31.7952 11.989C31.7952 11.3015 31.9112 10.6743 32.1432 10.1071C32.3752 9.53136 32.7018 9.03732 33.1228 8.62479C33.5525 8.20373 34.0552 7.88154 34.6309 7.65807C35.2153 7.42606 35.8597 7.31006 36.5643 7.31006C37.269 7.31006 37.9092 7.42606 38.485 7.65807C39.0693 7.88154 39.572 8.20373 39.993 8.62479C40.4227 9.03732 40.7535 9.53136 40.9855 10.1071C41.2176 10.6743 41.3336 11.3015 41.3336 11.989C41.3336 12.6765 41.2176 13.3081 40.9855 13.8838C40.7535 14.4509 40.4227 14.945 39.993 15.3661C39.572 15.7786 39.0693 16.1008 38.485 16.3328C37.9092 16.5563 37.269 16.668 36.5643 16.668C35.8597 16.668 35.2153 16.5563 34.6309 16.3328C34.0552 16.1008 33.5525 15.7786 33.1228 15.3661C32.7018 14.945 32.3752 14.4509 32.1432 13.8838ZM39.5548 11.989C39.5548 11.3875 39.4259 10.8633 39.1681 10.4165C38.9189 9.96102 38.5708 9.60442 38.124 9.3466C37.6772 9.08887 37.1573 8.95996 36.5643 8.95996C35.98 8.95996 35.4602 9.08887 35.0047 9.3466C34.5578 9.60442 34.2055 9.96102 33.9478 10.4165C33.6986 10.8633 33.574 11.3875 33.574 11.989C33.574 12.5819 33.6986 13.1061 33.9478 13.5616C34.2055 14.017 34.5578 14.3736 35.0047 14.6314C35.4602 14.8892 35.98 15.0181 36.5643 15.0181C37.1573 15.0181 37.6772 14.8892 38.124 14.6314C38.5708 14.3736 38.9189 14.017 39.1681 13.5616C39.4259 13.1061 39.5548 12.5819 39.5548 11.989Z" fill="#122A4E"/>
<path id="Vector_33" d="M49.7141 9.74623H49.8172V7.47761C49.6884 7.52916 49.5423 7.55497 49.379 7.55497C49.2329 7.55497 48.9966 7.51633 48.67 7.43897C48.3521 7.35301 47.9654 7.31006 47.51 7.31006C46.496 7.31006 45.6066 7.50772 44.8418 7.90297C44.0856 8.28969 43.497 8.83535 43.076 9.53996C42.6549 10.236 42.4443 11.0523 42.4443 11.989C42.4443 12.6679 42.5603 13.2951 42.7923 13.8709C43.0243 14.438 43.3552 14.9321 43.7849 15.3532C44.2145 15.7743 44.7172 16.1008 45.293 16.3328C45.8773 16.5563 46.5175 16.668 47.2135 16.668C48.1244 16.668 48.9106 16.4789 49.5723 16.1008C50.234 15.7227 50.741 15.1986 51.0933 14.5283C51.4542 13.858 51.6347 13.0847 51.6347 12.2081C51.6347 12.1413 51.6379 12.0777 51.6444 12.0174C51.6546 11.9226 51.6729 11.8358 51.6991 11.757C51.7507 11.6281 51.8194 11.5207 51.9054 11.4348V11.3317H47.7678C47.7299 11.3317 47.6918 11.3313 47.6535 11.3306C47.6182 11.33 47.5828 11.3291 47.5472 11.3278C47.4916 11.3259 47.4357 11.3233 47.3795 11.3199C47.3161 11.3162 47.2521 11.3115 47.1878 11.3058C46.9901 11.2886 46.8139 11.2629 46.6593 11.2285V13.3296H46.7624C46.8655 13.1834 47.0373 13.0674 47.278 12.9815C47.5186 12.887 47.8322 12.8397 48.2189 12.8397H49.8036C49.7929 13.2437 49.6814 13.6089 49.4692 13.9354C49.2458 14.2705 48.9365 14.5369 48.5411 14.7345C48.1545 14.9235 47.7119 15.0181 47.2135 15.0181C46.6292 15.0181 46.1093 14.8892 45.6539 14.6314C45.207 14.3736 44.8547 14.017 44.597 13.5616C44.3477 13.1061 44.2231 12.5819 44.2231 11.989C44.2231 11.3789 44.3606 10.8461 44.6356 10.3907C44.9105 9.93529 45.2973 9.58298 45.7957 9.33377C46.3026 9.08456 46.8913 8.95996 47.5616 8.95996C47.8022 8.95996 48.0256 8.97717 48.2318 9.01151C48.4466 9.03732 48.6443 9.08456 48.8248 9.15332C49.0138 9.21347 49.1857 9.30366 49.3403 9.42396C49.5036 9.54426 49.6282 9.65166 49.7141 9.74623Z" fill="#122A4E"/>
<path id="Vector_34" fill-rule="evenodd" clip-rule="evenodd" d="M53.0135 13.8838C52.7815 13.3081 52.6655 12.6765 52.6655 11.989C52.6655 11.3015 52.7815 10.6743 53.0135 10.1071C53.2455 9.53136 53.572 9.03732 53.9931 8.62479C54.4228 8.20373 54.9255 7.88154 55.5012 7.65807C56.0856 7.42606 56.73 7.31006 57.4346 7.31006C58.1393 7.31006 58.7795 7.42606 59.3552 7.65807C59.9395 7.88154 60.4423 8.20373 60.8633 8.62479C61.293 9.03732 61.6238 9.53136 61.8558 10.1071C62.0879 10.6743 62.2039 11.3015 62.2039 11.989C62.2039 12.6765 62.0879 13.3081 61.8558 13.8838C61.6238 14.4509 61.293 14.945 60.8633 15.3661C60.4423 15.7786 59.9395 16.1008 59.3552 16.3328C58.7795 16.5563 58.1393 16.668 57.4346 16.668C56.73 16.668 56.0856 16.5563 55.5012 16.3328C54.9255 16.1008 54.4228 15.7786 53.9931 15.3661C53.572 14.945 53.2455 14.4509 53.0135 13.8838ZM60.4251 11.989C60.4251 11.3875 60.2961 10.8633 60.0383 10.4165C59.7892 9.96102 59.4411 9.60442 58.9943 9.3466C58.5475 9.08887 58.0276 8.95996 57.4346 8.95996C56.8503 8.95996 56.3305 9.08887 55.875 9.3466C55.4281 9.60442 55.0758 9.96102 54.8181 10.4165C54.5689 10.8633 54.4443 11.3875 54.4443 11.989C54.4443 12.5819 54.5689 13.1061 54.8181 13.5616C55.0758 14.017 55.4281 14.3736 55.875 14.6314C56.3305 14.8892 56.8503 15.0181 57.4346 15.0181C58.0276 15.0181 58.5475 14.8892 58.9943 14.6314C59.4411 14.3736 59.7892 14.017 60.0383 13.5616C60.2961 13.1061 60.4251 12.5819 60.4251 11.989Z" fill="#122A4E"/>
<path id="Vector_35" d="M76.8346 8.75417C76.5167 9.20104 76.203 9.80686 75.8937 10.5716L74.9011 13.0078C74.7035 13.4976 74.5188 13.8714 74.3469 14.1292C74.1836 14.387 74.0204 14.5632 73.857 14.6577C73.7024 14.7522 73.5305 14.7995 73.3415 14.7995C73.1954 14.7995 73.0579 14.7737 72.929 14.7221C72.8001 14.662 72.6884 14.5803 72.5939 14.4772H72.4908V16.4107C72.5035 16.4142 72.5164 16.4176 72.5298 16.4208C72.5506 16.426 72.5722 16.431 72.5946 16.4358C72.6203 16.4413 72.647 16.4465 72.6746 16.4515C72.7221 16.4602 72.7725 16.468 72.8259 16.4751C72.9634 16.4923 73.1138 16.5009 73.277 16.5009C73.6809 16.5009 74.0418 16.445 74.3598 16.3333C74.6863 16.2216 74.9785 16.0455 75.2363 15.8049C75.494 15.5557 75.7389 15.2377 75.971 14.851C76.203 14.4643 76.4307 13.996 76.6541 13.4461L77.6466 11.0099C77.8443 10.5201 78.0291 10.1463 78.2009 9.88852C78.3814 9.6221 78.5489 9.44165 78.7036 9.34716C78.7142 9.34011 78.7247 9.33321 78.7352 9.32661L78.7583 9.31267L78.7751 9.30288L78.7871 9.2962L78.8044 9.28686C78.8129 9.28241 78.8213 9.27811 78.8298 9.27395C78.8477 9.26513 78.8654 9.25712 78.8831 9.24977C78.9752 9.21158 79.0657 9.19244 79.1547 9.19244C79.2922 9.19244 79.4168 9.22255 79.5285 9.2827C79.6402 9.33425 79.7262 9.3944 79.7864 9.46316H79.8895V7.43945C79.8379 7.45666 79.7864 7.46949 79.7348 7.47809C79.7154 7.48135 79.6959 7.48402 79.6765 7.4861C79.6649 7.48729 79.6534 7.48825 79.6418 7.48899C79.6332 7.48959 79.6246 7.49003 79.616 7.49033C79.604 7.49077 79.592 7.491 79.5801 7.491H79.4125C79.3856 7.48647 79.3494 7.48321 79.3037 7.48106C79.2618 7.47906 79.2122 7.47809 79.1547 7.47809C78.6821 7.47809 78.2568 7.57696 77.8787 7.77455C77.5091 7.97221 77.1611 8.29877 76.8346 8.75417Z" fill="#122A4E"/>
<path id="Vector_36" d="M80.7295 9.06347C80.7295 8.67675 80.6952 8.37169 80.6264 8.14829C80.5576 7.91629 80.4589 7.74874 80.3299 7.64557V7.54248H82.8435V7.64557C82.7146 7.74874 82.6157 7.91629 82.5469 8.14829C82.4783 8.37169 82.4438 8.67675 82.4438 9.06347V13.2011C82.4438 13.794 82.5728 14.2451 82.8306 14.5545C83.0883 14.8639 83.4664 15.0186 83.9648 15.0186C84.4633 15.0186 84.8414 14.8639 85.0991 14.5545C85.3569 14.2451 85.4858 13.794 85.4858 13.2011V9.06347C85.4858 8.67675 85.4515 8.37169 85.3827 8.14829C85.314 7.91629 85.2151 7.74874 85.0863 7.64557V7.54248H87.5997V7.64557C87.4708 7.74874 87.372 7.91629 87.3033 8.14829C87.2345 8.37169 87.2002 8.67675 87.2002 9.06347V13.2784C87.2002 14.0088 87.0756 14.6276 86.8264 15.1346C86.5858 15.6415 86.2248 16.0239 85.7436 16.2817C85.2624 16.5396 84.6694 16.6685 83.9648 16.6685C83.2602 16.6685 82.6672 16.5396 82.186 16.2817C81.7048 16.0239 81.3396 15.6415 81.0904 15.1346C80.8498 14.6276 80.7295 14.0088 80.7295 13.2784V9.06347Z" fill="#122A4E"/>
<path id="Vector_37" d="M88.9259 9.16656C88.9259 8.77992 88.8872 8.45765 88.8099 8.19984C88.7325 7.94203 88.6208 7.75727 88.4747 7.64557V7.54248H90.7691V7.61984C90.6401 7.78308 90.5886 7.97214 90.6144 8.18694C90.6401 8.4018 90.7561 8.60377 90.9624 8.79275L93.2596 10.8552L95.3965 8.87011C95.6285 8.65531 95.7617 8.43614 95.796 8.21275C95.839 7.98074 95.8003 7.78308 95.68 7.61984V7.54248H97.9744V7.64557C97.8369 7.75727 97.7252 7.94203 97.6393 8.19984C97.5619 8.45765 97.5233 8.77992 97.5233 9.16656V14.9154C97.5233 15.3021 97.5576 15.6115 97.6264 15.8435C97.6951 16.0669 97.7939 16.2302 97.9228 16.3333V16.4364H95.4094V16.3333C95.5382 16.2302 95.6371 16.0669 95.7058 15.8435C95.7746 15.6115 95.8089 15.3021 95.8089 14.9154V10.5942L93.2568 12.9047H93.2052L90.6401 10.6203V14.9154C90.6401 15.3021 90.6746 15.6115 90.7433 15.8435C90.812 16.0669 90.9109 16.2302 91.0398 16.3333V16.4364H88.5262V16.3333C88.6552 16.2302 88.7539 16.0669 88.8227 15.8435C88.8915 15.6115 88.9259 15.3021 88.9259 14.9154V9.16656Z" fill="#122A4E"/>
<path id="Vector_38" fill-rule="evenodd" clip-rule="evenodd" d="M68.9013 14.9154C68.9013 15.3107 68.9401 15.6243 69.0174 15.8563C69.1033 16.0798 69.2193 16.2388 69.3654 16.3333V16.4364H66.7874V16.3333C66.9164 16.2302 67.0152 16.0669 67.0839 15.8435C67.1527 15.6115 67.1871 15.3021 67.1871 14.9154V9.06347C67.1871 8.67675 67.1484 8.37169 67.0711 8.14829C66.9937 7.91629 66.8863 7.74874 66.7488 7.64557V7.54248H69.9583C71.0583 7.54248 71.9176 7.82603 72.5363 8.3932C73.1636 8.96037 73.4772 9.74234 73.4772 10.7392C73.4772 11.4008 73.3354 11.9723 73.0519 12.4535C72.7683 12.9261 72.3644 13.2913 71.8402 13.5491C71.3161 13.8069 70.6888 13.9358 69.9583 13.9358H68.9013V14.9154ZM68.9013 9.11502V12.3633H69.881C70.474 12.3633 70.9251 12.2258 71.2344 11.9508C71.5438 11.6672 71.6984 11.2634 71.6984 10.7392C71.6984 10.2064 71.5438 9.80249 71.2344 9.52747C70.9251 9.25253 70.474 9.11502 69.881 9.11502H68.9013Z" fill="#122A4E"/>
<path id="Vector_39" d="M63.5594 8.14829C63.6282 8.37169 63.6625 8.67675 63.6625 9.06347V14.9154C63.6625 15.0793 63.6564 15.2294 63.644 15.3655C63.6272 15.5505 63.5991 15.7098 63.5594 15.8435C63.5391 15.9097 63.5161 15.9707 63.4904 16.0263C63.4664 16.0785 63.44 16.1259 63.4114 16.1687C63.3674 16.2345 63.318 16.2894 63.263 16.3333V16.4364H65.7765V16.3333C65.6476 16.2302 65.5487 16.0669 65.48 15.8435C65.4113 15.6115 65.3769 15.3021 65.3769 14.9154V9.06347C65.3769 8.67675 65.4113 8.37169 65.48 8.14829C65.5487 7.91629 65.6476 7.74874 65.7765 7.64557V7.54248H63.263V7.64557C63.3919 7.74874 63.4907 7.91629 63.5594 8.14829Z" fill="#122A4E"/>
<path id="Vector_40" d="M27.2239 14.8381H29.8404C30.2272 14.8381 30.5365 14.8037 30.7685 14.7349C31.0005 14.6577 31.1681 14.5502 31.2712 14.4128H31.3743V16.5396C31.2197 16.4965 31.0436 16.4665 30.8459 16.4493C30.6568 16.4407 30.4635 16.4364 30.2658 16.4364H25.0713V16.3333C25.2088 16.2302 25.3162 16.0669 25.3936 15.8435C25.4708 15.6115 25.5096 15.3021 25.5096 14.9154V9.06347C25.5096 8.67675 25.4751 8.37169 25.4064 8.14829C25.3377 7.91629 25.2388 7.74874 25.1099 7.64557V7.54248H27.6879V7.64557C27.6239 7.68696 27.5657 7.74073 27.5132 7.80689C27.446 7.89174 27.3882 7.99691 27.3399 8.12248C27.2625 8.34595 27.2239 8.65962 27.2239 9.06347V14.8381Z" fill="#122A4E"/>
<path id="Vector_41" fill-rule="evenodd" clip-rule="evenodd" d="M92.6524 20.7815C92.6524 21.2135 92.7273 21.5455 92.8771 21.7777C93.0269 22.0099 93.2404 22.126 93.5176 22.126C93.7997 22.126 94.0144 22.0099 94.1617 21.7777C94.3115 21.5455 94.3865 21.2135 94.3865 20.7815C94.3865 20.3496 94.3115 20.0175 94.1617 19.7853C94.0144 19.5531 93.7997 19.437 93.5176 19.437C93.2404 19.437 93.0269 19.5531 92.8771 19.7853C92.7273 20.0175 92.6524 20.3496 92.6524 20.7815ZM94.0606 20.7815C94.0606 21.1236 94.0144 21.3832 93.9221 21.5605C93.8322 21.7378 93.6973 21.8264 93.5176 21.8264C93.3403 21.8264 93.2055 21.7378 93.1131 21.5605C93.0207 21.3832 92.9745 21.1236 92.9745 20.7815C92.9745 20.4395 93.0207 20.1798 93.1131 20.0025C93.2055 19.8252 93.3403 19.7366 93.5176 19.7366C93.6973 19.7366 93.8322 19.8252 93.9221 20.0025C94.0144 20.1798 94.0606 20.4395 94.0606 20.7815Z" fill="#122A4E"/>
<path id="Vector_42" d="M91.907 21.7777H91.1985L91.6373 21.1823C91.7996 20.9625 91.9157 20.7728 91.9856 20.613C92.058 20.4532 92.0942 20.3034 92.0942 20.1636C92.0942 19.9438 92.0193 19.7703 91.8695 19.643C91.7197 19.5131 91.5162 19.4482 91.2591 19.4482C91.1667 19.4482 91.0893 19.4545 91.0269 19.4669C90.9644 19.4794 90.9133 19.4919 90.8733 19.5044C90.8359 19.5144 90.8034 19.5194 90.7759 19.5194H90.7347C90.7222 19.5169 90.7035 19.5144 90.6786 19.5119V19.98H90.7048C90.7222 19.9526 90.7422 19.9276 90.7647 19.9051C90.7897 19.8827 90.8184 19.8614 90.8508 19.8415C90.8908 19.8165 90.9432 19.794 91.0081 19.7741C91.073 19.7541 91.143 19.7441 91.2179 19.7441C91.3851 19.7441 91.5175 19.7853 91.6149 19.8677C91.7122 19.9501 91.7609 20.0624 91.7609 20.2048C91.7609 20.2797 91.7434 20.3645 91.7085 20.4594C91.6735 20.5518 91.6173 20.6604 91.5399 20.7853C91.465 20.9101 91.3664 21.0562 91.2441 21.2235L90.6411 22.0474V22.0736H92.0156C92.063 22.0736 92.1092 22.0749 92.1542 22.0774C92.1991 22.0824 92.2391 22.0898 92.274 22.0998V21.6279H92.244C92.2191 21.6754 92.1791 21.7128 92.1242 21.7403C92.0718 21.7653 91.9994 21.7777 91.907 21.7777Z" fill="#122A4E"/>
<path id="Vector_43" d="M82.3448 21.77H81.416V20.7625H81.8954C81.9778 20.7625 82.039 20.7712 82.0789 20.7887C82.1189 20.8037 82.1488 20.8262 82.1688 20.8561H82.195V20.3692H82.1688C82.1488 20.3967 82.1189 20.4192 82.0789 20.4367C82.039 20.4541 81.9778 20.4629 81.8954 20.4629H81.416V19.7925H82.3223C82.4147 19.7925 82.4871 19.805 82.5396 19.8299C82.5945 19.8549 82.6344 19.8924 82.6594 19.9423H82.6894V19.4629C82.6544 19.4704 82.6145 19.4766 82.5695 19.4816C82.5246 19.4866 82.4784 19.4891 82.431 19.4891H80.9628V19.5191C81.0028 19.5416 81.034 19.5803 81.0565 19.6352C81.0814 19.6901 81.0939 19.7675 81.0939 19.8674V21.695C81.0939 21.7949 81.0814 21.8723 81.0565 21.9273C81.034 21.9822 81.0028 22.0209 80.9628 22.0434V22.0733H82.4534C82.5009 22.0733 82.5471 22.0746 82.592 22.0771C82.6394 22.0821 82.6794 22.0895 82.7118 22.0995V21.6201H82.6856C82.6607 21.6676 82.6207 21.705 82.5658 21.7325C82.5109 21.7575 82.4372 21.77 82.3448 21.77Z" fill="#122A4E"/>
<path id="Vector_44" d="M84.1532 19.9086H84.127C84.1095 19.8861 84.087 19.8661 84.0596 19.8487C84.0346 19.8287 84.0059 19.8125 83.9734 19.8C83.951 19.7925 83.9247 19.7862 83.8948 19.7812C83.8648 19.7738 83.8311 19.77 83.7937 19.77C83.6663 19.77 83.5639 19.8025 83.4865 19.8674C83.4091 19.9323 83.3704 20.0147 83.3704 20.1146C83.3704 20.192 83.3917 20.2606 83.4341 20.3206C83.4766 20.378 83.5502 20.4417 83.6551 20.5116L83.8498 20.6389C83.9597 20.7113 84.0496 20.7862 84.1195 20.8636C84.1919 20.9385 84.2456 21.0184 84.2805 21.1033C84.3155 21.1882 84.333 21.2818 84.333 21.3842C84.333 21.5939 84.2568 21.765 84.1045 21.8973C83.9547 22.0271 83.74 22.092 83.4603 22.092C83.3879 22.092 83.3143 22.087 83.2394 22.0771C83.167 22.0696 83.107 22.0608 83.0596 22.0508V21.6314H83.0858L83.1457 21.6913C83.1657 21.7063 83.1882 21.72 83.2131 21.7325C83.2431 21.75 83.2806 21.765 83.3255 21.7774C83.3704 21.7899 83.4204 21.7962 83.4753 21.7962C83.6326 21.7962 83.7575 21.7587 83.8498 21.6838C83.9422 21.6064 83.9884 21.5065 83.9884 21.3842C83.9884 21.2868 83.9584 21.2007 83.8985 21.1258C83.8411 21.0484 83.7437 20.9647 83.6064 20.8748L83.4154 20.7438C83.2781 20.6539 83.1782 20.559 83.1158 20.4591C83.0558 20.3593 83.0259 20.2457 83.0259 20.1183C83.0259 19.9236 83.097 19.7675 83.2394 19.6502C83.3842 19.5303 83.5827 19.4704 83.8349 19.4704C83.8848 19.4704 83.926 19.4729 83.9584 19.4779C83.9934 19.4804 84.0234 19.4816 84.0483 19.4816C84.0758 19.4816 84.1108 19.4754 84.1532 19.4629V19.9086Z" fill="#122A4E"/>
<path id="Vector_45" d="M84.8352 19.7925H85.2584V21.7175C85.2584 21.8124 85.2472 21.8848 85.2247 21.9347C85.2048 21.9847 85.1748 22.0221 85.1348 22.0471V22.0733H85.7041V22.0471C85.6642 22.0221 85.633 21.9847 85.6105 21.9347C85.5905 21.8848 85.5805 21.8124 85.5805 21.7175V19.7925H86.0037C86.0961 19.7925 86.1685 19.805 86.221 19.8299C86.2759 19.8549 86.3158 19.8924 86.3408 19.9423H86.3708V19.4629C86.3358 19.4704 86.2959 19.4766 86.2509 19.4816C86.206 19.4866 86.1598 19.4891 86.1124 19.4891H84.7266C84.6817 19.4891 84.6355 19.4866 84.5881 19.4816C84.5431 19.4766 84.5032 19.4704 84.4682 19.4629V19.9423H84.4982C84.5231 19.8924 84.5618 19.8549 84.6143 19.8299C84.6692 19.805 84.7429 19.7925 84.8352 19.7925Z" fill="#122A4E"/>
<path id="Vector_46" fill-rule="evenodd" clip-rule="evenodd" d="M87.4372 19.4893C87.7394 19.4893 87.9978 19.5405 88.2125 19.6429C88.4297 19.7452 88.5958 19.8938 88.7106 20.0886C88.828 20.2808 88.8866 20.5118 88.8866 20.7814C88.8866 21.0511 88.828 21.2833 88.7106 21.478C88.5958 21.6703 88.4297 21.8176 88.2125 21.92C87.9978 22.0223 87.7394 22.0735 87.4372 22.0735H86.6245V22.0436C86.6645 22.0211 86.6957 21.9824 86.7182 21.9275C86.7431 21.8725 86.7556 21.7951 86.7556 21.6952V19.8676C86.7556 19.7677 86.7431 19.6903 86.7182 19.6354C86.6957 19.5805 86.6645 19.5418 86.6245 19.5193V19.4893H87.4372ZM88.5496 20.7814C88.5496 20.5817 88.5059 20.4081 88.4185 20.2608C88.3311 20.111 88.2075 19.9962 88.0477 19.9163C87.8904 19.8339 87.7019 19.7927 87.4822 19.7927H87.0777V21.7702H87.4822C87.7019 21.7702 87.8904 21.7302 88.0477 21.6503C88.2075 21.5679 88.3311 21.4531 88.4185 21.3057C88.5059 21.1559 88.5496 20.9812 88.5496 20.7814Z" fill="#122A4E"/>
<path id="Vector_47" d="M89.0963 21.8789C89.0963 21.9438 89.1175 21.9987 89.1599 22.0437C89.2049 22.0886 89.261 22.1111 89.3285 22.1111C89.3934 22.1111 89.4471 22.0886 89.4895 22.0437C89.5344 21.9987 89.5569 21.9438 89.5569 21.8789C89.5569 21.8164 89.5344 21.7628 89.4895 21.7178C89.4471 21.6729 89.3934 21.6504 89.3285 21.6504C89.261 21.6504 89.2049 21.6729 89.1599 21.7178C89.1175 21.7628 89.0963 21.8164 89.0963 21.8789Z" fill="#122A4E"/>
<path id="Vector_48" d="M95.6502 21.7175C95.6502 21.8124 95.6614 21.8848 95.6839 21.9347C95.7089 21.9847 95.7413 22.0221 95.7813 22.0471V22.0733H95.1933V22.0471C95.2357 22.0221 95.2682 21.9847 95.2907 21.9347C95.3156 21.8848 95.3281 21.8124 95.3281 21.7175V19.9086L94.7588 20.182H94.7289V19.8711L95.6202 19.4629H95.6502V21.7175Z" fill="#122A4E"/>
<path id="Vector_49" fill-rule="evenodd" clip-rule="evenodd" d="M97.3451 21.0287C97.2528 21.0662 97.1554 21.0849 97.0531 21.0849C96.8983 21.0849 96.7597 21.0499 96.6374 20.98C96.515 20.9101 96.4189 20.814 96.349 20.6916C96.2791 20.5693 96.2441 20.4307 96.2441 20.2759C96.2441 20.1111 96.2816 19.9663 96.3565 19.8415C96.4314 19.7141 96.5337 19.6155 96.6636 19.5456C96.7934 19.4732 96.9432 19.437 97.113 19.437C97.2803 19.437 97.4288 19.4719 97.5587 19.5419C97.6885 19.6093 97.7896 19.7041 97.862 19.8265C97.9369 19.9488 97.9744 20.0899 97.9744 20.2497C97.9744 20.3596 97.9557 20.4707 97.9182 20.583C97.8808 20.6929 97.8183 20.819 97.731 20.9613L97.0531 22.0736H96.6935V22.0474L97.3451 21.0287ZM97.6561 20.2647C97.6561 20.3695 97.6323 20.4632 97.5849 20.5456C97.5375 20.628 97.4725 20.6929 97.3901 20.7403C97.3078 20.7853 97.2129 20.8077 97.1055 20.8077C96.9981 20.8077 96.9045 20.7853 96.8246 20.7403C96.7447 20.6954 96.6811 20.633 96.6336 20.5531C96.5887 20.4707 96.5662 20.3783 96.5662 20.2759C96.5662 20.1686 96.5887 20.0749 96.6336 19.995C96.6811 19.9151 96.746 19.8527 96.8284 19.8078C96.9108 19.7603 97.0056 19.7366 97.113 19.7366C97.2179 19.7366 97.3102 19.7591 97.3901 19.804C97.4725 19.849 97.5375 19.9114 97.5849 19.9913C97.6323 20.0687 97.6561 20.1598 97.6561 20.2647Z" fill="#122A4E"/>
<path id="Vector_50" d="M100.343 6.77387C100.343 7.20989 99.9895 7.56334 99.5534 7.56334C99.1174 7.56334 98.7639 7.20989 98.7639 6.77387C98.7639 6.33784 99.1174 5.98438 99.5534 5.98438C99.9895 5.98438 100.343 6.33784 100.343 6.77387Z" fill="#122A4E"/>
</g>
<defs>
<clipPath id="clip0_415_1237">
<rect width="101" height="24" fill="white" transform="translate(0 0.03125)"/>
</clipPath>
</defs>
</svg>
