<svg width="168" height="41" viewBox="0 0 168 41" fill="none" xmlns="http://www.w3.org/2000/svg">
<g id="Frame" clip-path="url(#clip0_415_1220)">
<path id="Vector" d="M80.4222 0.03125C79.4851 4.15782 79.1153 5.78682 73.5248 6.29629C79.1153 5.78682 78.7454 7.41582 77.8084 11.5424C78.7398 7.44034 79.1153 5.78682 84.6179 5.28535C79.1153 5.78682 79.4907 4.1333 80.4222 0.03125Z" fill="#122A4E"/>
<path id="Vector_2" d="M82.8384 10.9794C81.2663 11.9718 79.3577 12.2077 77.5113 12.4252C75.4888 12.6634 73.4867 12.9103 71.5076 13.1652C72.0318 10.8585 72.2759 9.92378 75.409 9.63825C72.243 9.92677 72.459 8.9754 72.9949 6.61521C72.4558 8.98951 72.243 9.92677 69.0265 10.2199C72.2098 9.9298 72.0342 10.8448 71.5076 13.1652C65.5994 13.9263 59.8955 14.7592 54.4618 15.6464C60.7574 14.8788 69.5076 14.1309 77.0174 13.4891C79.4552 13.2807 82.7254 13.0231 83.4201 15.3691C83.6399 16.1113 83.6437 17.0259 83.5109 18.1184H80.188L77.445 31.0228H84.745L87.488 18.1184H83.7838C84.3507 16.3939 85.0588 15.0485 86.2194 14.0111C87.6969 12.6906 89.7856 12.4142 91.762 12.2716C131.931 9.37335 163.557 11.4912 164.077 17.3997C164.226 19.082 161.837 20.9027 157.42 22.7426V22.7493L157.405 22.7553V22.7426C159.042 22.0503 162.336 20.3345 162.538 18.1184H155.545L152.781 24.5018C152.779 24.5132 152.77 24.5247 152.756 24.5362H152.738L152.746 24.5018C152.733 23.7906 152.714 23.0794 152.689 22.3683C152.676 21.6571 152.662 20.9516 152.646 20.2519C152.633 19.5407 152.615 18.8296 152.59 18.1184H143.214L140.471 31.0228H146.892L148.402 23.9168L148.406 23.8996H148.423C148.426 23.8996 148.429 23.8999 148.431 23.9006C148.435 23.9021 148.438 23.9052 148.438 23.91C148.438 23.9113 148.438 23.9128 148.438 23.9144L148.437 23.9168C148.479 25.0982 148.516 26.2797 148.546 27.4612C148.576 28.6427 148.611 29.8299 148.651 31.0228H153.136L156.382 23.8652L156.385 23.848H156.403C156.41 23.848 156.414 23.85 156.416 23.854C156.417 23.8547 156.417 23.8556 156.417 23.8565V23.8579C156.417 23.86 156.417 23.8624 156.417 23.8652L154.895 31.0228H161.668L164.089 19.6317C166.552 18.1336 167.812 16.6852 167.665 15.34C166.963 8.88702 134.133 7.07848 92.4639 10.8646C92.3854 10.8718 92.306 10.8791 92.2261 10.8865L92.2153 10.8875C90.2525 11.0691 87.8954 11.2871 86.8964 9.6311C85.937 8.0409 86.5492 5.34475 87.4289 1.4707C86.3499 6.22225 85.6766 9.18781 82.8384 10.9794Z" fill="#122A4E"/>
<path id="Vector_3" fill-rule="evenodd" clip-rule="evenodd" d="M55.2638 18.3592C54.0108 17.8545 52.3405 17.6021 50.2532 17.6021C49.2564 17.6021 48.3283 17.6652 47.4688 17.7914C46.6211 17.9175 45.8374 18.1011 45.1178 18.342C44.3982 18.5829 43.745 18.8696 43.1583 19.2023C42.5858 19.5234 42.068 19.8905 41.605 20.3034C41.1444 20.7049 40.741 21.1408 40.3948 21.6111C40.0627 22.0699 39.7844 22.5517 39.5598 23.0564C39.3495 23.5496 39.1882 24.0601 39.076 24.5877C38.9395 25.2301 38.884 25.8495 38.9097 26.446C38.9379 27.031 39.0436 27.5816 39.2271 28.0977C39.4247 28.6024 39.7024 29.0613 40.0603 29.4742C40.4299 29.8872 40.882 30.2427 41.4166 30.541C41.9538 30.8277 42.5747 31.0514 43.2793 31.212C43.9957 31.3726 44.7995 31.4529 45.6908 31.4529C46.1012 31.4529 46.4567 31.4357 46.7572 31.4013C47.0669 31.3783 47.3862 31.3382 47.715 31.2808C48.0465 30.6041 48.3792 29.9216 48.7131 29.2333C49.0612 28.5336 49.4023 27.8396 49.7361 27.1514C49.8313 26.9552 49.9264 26.7595 50.0214 26.5642C50.1097 26.3827 50.198 26.2015 50.2861 26.0207C50.4358 25.714 50.5851 25.4084 50.7342 25.1039L49.4762 31.0227H56.9345L58.1926 25.1039H50.7342L58.7063 23.3489C58.7503 22.2592 58.5002 21.2842 57.956 20.4239C57.4142 19.5521 56.5168 18.8639 55.2638 18.3592ZM50.7342 25.1039C50.5424 25.3448 50.2675 25.534 49.9099 25.6717C49.5548 25.7979 49.0782 25.861 48.4801 25.861C48.0931 25.861 47.7674 25.8208 47.5031 25.7405C47.2387 25.6602 47.0332 25.5513 46.8865 25.4136C46.7399 25.276 46.6426 25.1268 46.5946 24.9663C46.5491 24.7942 46.5458 24.6164 46.5848 24.4329C46.6385 24.1805 46.753 23.9454 46.9283 23.7274C47.1178 23.498 47.3867 23.3087 47.735 23.1596C48.0951 23.0105 48.5506 22.936 49.1018 22.936C49.6881 22.936 50.1377 23.0277 50.4505 23.2112C50.7633 23.3948 50.9442 23.6471 50.9932 23.9683C51.0422 24.2895 50.9559 24.668 50.7342 25.1039Z" fill="#122A4E"/>
<path id="Vector_4" d="M71.3052 17.6367C70.9139 17.6136 70.5061 17.6021 70.0818 17.6021C69.003 17.6021 67.995 17.6824 67.0579 17.843C66.135 17.9921 65.2841 18.2158 64.5054 18.514C63.7291 18.8008 63.0273 19.1506 62.4001 19.5636C61.7871 19.9651 61.244 20.4239 60.7707 20.9401C60.3092 21.4562 59.92 22.0183 59.6031 22.6262C59.298 23.2342 59.0735 23.8765 58.9297 24.5533C58.9161 24.6169 58.9034 24.6804 58.8916 24.7438C67.2405 24.5726 69.2448 22.5388 71.3052 17.6367Z" fill="#122A4E"/>
<path id="Vector_5" d="M58.8916 24.7435C58.807 25.1947 58.764 25.6419 58.7625 26.0843C58.7725 26.5891 58.846 27.0708 58.983 27.5296C59.1317 27.9885 59.344 28.4243 59.6197 28.8373C59.9097 29.2388 60.2714 29.6058 60.7049 29.9385C61.1502 30.2711 61.6815 30.5579 62.2987 30.7988C62.9184 31.0282 63.6252 31.206 64.4193 31.3321C64.9065 31.4156 65.4293 31.4738 65.9876 31.5066C67.6853 26.608 67.2259 24.6166 58.8916 24.7435Z" fill="#122A4E"/>
<path id="Vector_6" d="M66.0485 31.5102C66.3922 31.5292 66.7492 31.5387 67.1195 31.5387C68.515 31.5387 69.7673 31.4125 70.8764 31.1602C71.9947 30.9193 72.9813 30.5809 73.8362 30.145C74.6936 29.6977 75.4248 29.1815 76.0299 28.5965C76.6375 28 77.1247 27.3634 77.4913 26.6867C77.8604 25.9984 78.123 25.2872 78.279 24.5531C78.2901 24.5008 78.3007 24.4488 78.3106 24.397C70.0963 24.5664 68.0989 26.6285 66.0485 31.5102Z" fill="#122A4E"/>
<path id="Vector_7" d="M78.3106 24.3969C70.1216 24.5206 69.6818 22.5055 71.3667 17.6401C72.9377 17.738 74.2403 18.0235 75.2743 18.4965C76.5782 19.093 77.4769 19.9131 77.9704 20.957C78.4447 21.9604 78.5581 23.1073 78.3106 24.3969Z" fill="#122A4E"/>
<path id="Vector_8" fill-rule="evenodd" clip-rule="evenodd" d="M116.071 23.2707L123.195 22.9532C123.544 22.1387 123.618 21.4046 123.417 20.7508C123.216 20.097 122.773 19.5349 122.087 19.0646C121.413 18.5943 120.528 18.233 119.432 17.9806C118.349 17.7283 117.085 17.6021 115.643 17.6021C114.623 17.6021 113.63 17.6652 112.665 17.7914C111.712 17.9175 110.817 18.1011 109.98 18.342C109.155 18.5829 108.41 18.8868 107.746 19.2539C107.095 19.6095 106.561 20.0282 106.142 20.5099C105.725 20.9802 105.455 21.5079 105.33 22.0929C105.213 22.6434 105.248 23.1424 105.434 23.5898C105.623 24.0256 106.018 24.4042 106.618 24.7254C107.218 25.0465 108.073 25.2989 109.183 25.4824C109.918 25.5961 110.789 25.6722 111.796 25.7108L104.513 26.1879C104.231 27.1285 104.217 27.9371 104.472 28.6139C104.739 29.2907 105.236 29.847 105.964 30.2829C106.695 30.7073 107.625 31.0227 108.753 31.2292C109.882 31.4357 111.162 31.5389 112.593 31.5389C113.883 31.5389 115.105 31.4414 116.261 31.2464C117.426 31.0629 118.469 30.7875 119.392 30.4205C120.328 30.042 121.089 29.5774 121.676 29.0269C122.276 28.4648 122.653 27.8224 122.806 27.0998C122.948 26.4345 122.917 25.861 122.715 25.3792C122.515 24.8859 122.096 24.4845 121.458 24.1748C120.823 23.8536 119.929 23.6184 118.776 23.4693C118.009 23.3701 117.107 23.3039 116.071 23.2707ZM115.87 23.2647C115.409 23.252 114.921 23.2457 114.408 23.2457H113.969C113.652 23.2457 113.398 23.2284 113.205 23.194C113.025 23.1596 112.897 23.1023 112.82 23.022C112.746 22.9302 112.723 22.8155 112.752 22.6779C112.777 22.5632 112.835 22.4542 112.927 22.3509C113.031 22.2477 113.155 22.1617 113.299 22.0929C113.457 22.0126 113.633 21.9552 113.828 21.9208C114.025 21.8749 114.241 21.852 114.476 21.852C114.851 21.852 115.174 21.9036 115.446 22.0068C115.731 22.0986 115.921 22.2535 116.015 22.4714C116.111 22.6747 116.062 22.9391 115.87 23.2647ZM112.114 25.7216C111.961 26.0512 111.928 26.3271 112.017 26.5492C112.121 26.7786 112.319 26.9507 112.611 27.0654C112.904 27.1801 113.243 27.2374 113.63 27.2374C113.865 27.2374 114.079 27.2202 114.274 27.1858C114.481 27.1514 114.668 27.0998 114.835 27.031C115.002 26.9621 115.138 26.8761 115.242 26.7729C115.348 26.6582 115.416 26.532 115.445 26.3943C115.504 26.119 115.395 25.9412 115.119 25.861C114.855 25.7807 114.447 25.7405 113.896 25.7405H113.456C112.986 25.7405 112.539 25.7342 112.114 25.7216Z" fill="#122A4E"/>
<path id="Vector_9" d="M132.58 18.1182H125.28L123.55 26.2566C123.402 26.9563 123.425 27.5929 123.619 28.1665C123.817 28.7285 124.146 29.2217 124.607 29.6462C125.082 30.0591 125.652 30.409 126.319 30.6957C126.996 30.9825 127.737 31.1947 128.54 31.3323C129.355 31.47 130.191 31.5388 131.047 31.5388C132.126 31.5388 133.199 31.4298 134.265 31.2119C135.343 30.994 136.339 30.667 137.253 30.2312C138.169 29.7838 138.937 29.2332 139.557 28.5794C140.19 27.9141 140.601 27.1398 140.789 26.2566L142.519 18.1182H135.219L133.774 24.9145C133.704 25.2472 133.515 25.4995 133.209 25.6716C132.903 25.8436 132.579 25.9297 132.239 25.9297C132.075 25.9297 131.916 25.9067 131.761 25.8609C131.619 25.815 131.491 25.7519 131.379 25.6716C131.282 25.5798 131.205 25.4708 131.15 25.3447C131.106 25.2185 131.103 25.0694 131.139 24.8973L132.58 18.1182Z" fill="#122A4E"/>
<path id="Vector_10" fill-rule="evenodd" clip-rule="evenodd" d="M99.3278 18.1182C100.418 18.1182 101.337 18.2673 102.082 18.5655C102.842 18.8523 103.432 19.248 103.853 19.7528C104.287 20.246 104.573 20.808 104.708 21.4389C104.844 22.0698 104.84 22.7236 104.696 23.4004C104.542 24.123 104.255 24.8113 103.835 25.4651C103.429 26.1075 102.896 26.681 102.238 27.1857C101.591 27.6904 100.831 28.0919 99.9589 28.3901C99.0888 28.6769 98.1201 28.8203 97.053 28.8203H93.2711L93.2499 28.8375H93.2323L93.2286 28.8547L92.7678 31.0226H85.4502L88.1931 18.1182H99.3278ZM95.683 25.0866C96.0349 25.0866 96.3402 25.0292 96.5991 24.9145C96.8722 24.7883 97.0869 24.6335 97.2432 24.45C97.4019 24.255 97.502 24.06 97.5434 23.865C97.5873 23.6585 97.5689 23.4692 97.4882 23.2972C97.41 23.1136 97.2657 22.9645 97.0556 22.8498C96.8454 22.7351 96.5586 22.6778 96.1951 22.6778H94.5768C94.565 22.6778 94.552 22.6835 94.5379 22.695L94.5342 22.7122L94.0332 25.0694C94.0449 25.0694 94.0496 25.0751 94.0471 25.0866H95.683Z" fill="#122A4E"/>
<path id="Vector_11" fill-rule="evenodd" clip-rule="evenodd" d="M11.7828 25.9641L11.7901 25.9297L13.4505 18.1182H6.15051L3.7999 29.1768C1.19765 30.7201 -0.13916 32.2126 0.0114694 33.5958C0.769477 40.5569 38.9146 42.1133 85.2109 37.0721C93.9828 36.1169 102.418 34.9934 110.324 33.7523C106.134 34.1272 101.67 34.5064 97.0945 34.8951L97.0891 34.8955L97.0806 34.8963L97.0749 34.8967L97.069 34.8972L97.0567 34.8983C93.0374 35.2397 88.9321 35.5884 84.8498 35.948C40.5351 39.8517 4.15823 37.8764 3.59966 31.5361C3.45233 29.8633 5.8128 28.0539 10.1819 26.2246C7.06872 27.5944 5.74017 29.3863 5.36723 31.0226H17.603L18.6782 25.9641H11.7828ZM9.96399 26.292C9.89339 26.32 9.82321 26.3479 9.75351 26.3759C10.0086 26.2758 10.2684 26.1755 10.5325 26.0753C10.5739 26.0582 10.6156 26.0412 10.6575 26.0243C10.5386 26.0691 10.4209 26.114 10.3044 26.159C10.2432 26.1826 10.1823 26.2062 10.1217 26.2299C10.0689 26.2506 10.0163 26.2713 9.96399 26.292Z" fill="#122A4E"/>
<path id="Vector_12" d="M31.7558 17.6367C31.3645 17.6136 30.9568 17.6021 30.5325 17.6021C29.4536 17.6021 28.4456 17.6824 27.5085 17.843C26.5856 17.9921 25.7348 18.2158 24.956 18.514C24.1797 18.8008 23.478 19.1506 22.8508 19.5636C22.2377 19.9651 21.6946 20.4239 21.2213 20.9401C20.7598 21.4562 20.3706 22.0183 20.0537 22.6262C19.7486 23.2342 19.5241 23.8765 19.3803 24.5533C19.3733 24.5861 19.3666 24.6188 19.36 24.6515C19.3539 24.6823 19.3479 24.7131 19.3422 24.7438C27.6912 24.5726 29.6954 22.5388 31.7558 17.6367Z" fill="#122A4E"/>
<path id="Vector_13" d="M19.3422 24.7435C19.2577 25.1947 19.2146 25.6419 19.2131 26.0843C19.2231 26.5891 19.2966 27.0708 19.4336 27.5296C19.5823 27.9885 19.7946 28.4243 20.0703 28.8373C20.3603 29.2388 20.722 29.6058 21.1555 29.9385C21.6008 30.2711 22.1321 30.5579 22.7493 30.7988C23.369 31.0282 24.0759 31.206 24.8699 31.3321C25.3571 31.4156 25.8799 31.4738 26.4382 31.5066C28.1359 26.608 27.6765 24.6166 19.3422 24.7435Z" fill="#122A4E"/>
<path id="Vector_14" d="M26.4991 31.5102C26.8428 31.5292 27.1998 31.5387 27.5701 31.5387C28.9656 31.5387 30.2179 31.4125 31.327 31.1602C32.4453 30.9193 33.4319 30.5809 34.2869 30.145C35.1442 29.6977 35.8754 29.1815 36.4806 28.5965C37.0881 28 37.5753 27.3634 37.9419 26.6867C38.311 25.9984 38.5736 25.2872 38.7296 24.5531C38.7408 24.5008 38.7513 24.4488 38.7612 24.397C30.5469 24.5664 28.5495 26.6285 26.4991 31.5102Z" fill="#122A4E"/>
<path id="Vector_15" d="M38.7612 24.3969C30.5722 24.5206 30.1325 22.5055 31.8174 17.6401C33.3884 17.738 34.6909 18.0235 35.725 18.4965C37.0289 19.093 37.9275 19.9131 38.421 20.957C38.8954 21.9604 39.0087 23.1073 38.7612 24.3969Z" fill="#122A4E"/>
<path id="Vector_16" d="M164.628 31.0225C165.279 31.0225 165.807 30.4946 165.807 29.8433C165.807 29.1921 165.279 28.6641 164.628 28.6641C163.976 28.6641 163.449 29.1921 163.449 29.8433C163.449 30.4946 163.976 31.0225 164.628 31.0225Z" fill="#122A4E"/>
</g>
<defs>
<clipPath id="clip0_415_1220">
<rect width="168" height="40" fill="white" transform="translate(0 0.03125)"/>
</clipPath>
</defs>
</svg>
