<?xml version="1.0" encoding="UTF-8"?>
<svg id="Layer_1" xmlns="http://www.w3.org/2000/svg" viewBox="0 0 126.01 96.55">
  <defs>
    <style>
      .cls-1 {
        fill: #26235d;
      }

      .cls-2 {
        fill: #1a1a49;
      }

      .cls-3 {
        fill: #34abbd;
      }
    </style>
  </defs>
  <g>
    <path class="cls-2" d="M14.01,73.91v5.81h-2.82v-23.24h1.69c4.78,0,8.4,3.55,8.4,8.73,0,4.71-3.15,8.23-7.27,8.7ZM14.01,71.19c2.39-.23,4.32-2.62,4.32-5.98s-1.93-5.78-4.32-6.01v11.99Z"/>
    <path class="cls-2" d="M30.47,79.72l-2.89-5.48c-.3.07-.63.13-.93.17v5.31h-2.82v-23.24h1.66c4.48,0,8.04,3.59,8.04,8.96,0,3.39-1.36,6.04-3.42,7.57l3.55,6.71h-3.19ZM26.65,71.72c2.12-.4,3.88-2.79,3.88-6.28s-1.76-5.71-3.88-6.14v12.42Z"/>
    <path class="cls-2" d="M36.55,79.72v-23.24h2.72v23.24h-2.72Z"/>
    <path class="cls-2" d="M59.39,56.48v23.24h-2.82v-20.02c-2.52.37-4.02,2.52-4.02,5.64v14.38h-2.76v-14.38c0-3.12-1.49-5.28-3.98-5.61v19.99h-2.82v-23.24h.33c3.52,0,6.51,1.66,7.87,4.18,1.33-2.52,4.28-4.18,7.84-4.18h.37Z"/>
    <path class="cls-2" d="M62.74,79.72v-23.24h7.97v2.76h-5.15v4.55h4.65v2.52h-4.65v10.66h5.15v2.76h-7.97Z"/>
    <path class="cls-3" d="M89.86,56.48v23.24h-2.82v-20.02c-2.52.37-4.02,2.52-4.02,5.64v14.38h-2.76v-14.38c0-3.12-1.49-5.28-3.98-5.61v19.99h-2.82v-23.24h.33c3.52,0,6.51,1.66,7.87,4.18,1.33-2.52,4.28-4.18,7.84-4.18h.37Z"/>
    <path class="cls-3" d="M93.21,79.72v-23.24h7.97v2.76h-5.15v4.55h4.65v2.52h-4.65v10.66h5.15v2.76h-7.97Z"/>
    <path class="cls-3" d="M105.5,56.48c6.67,0,10.69,4.91,10.69,11.62s-4.02,11.62-10.69,11.62h-1.56v-23.24h1.56ZM106.76,76.97c3.79-.2,6.44-3.79,6.44-8.87s-2.66-8.67-6.44-8.87v17.73Z"/>
  </g>
  <g>
    <path class="cls-1" d="M40.58,93.87v-7.93h.93v7.93h-.93ZM40.61,85.27v-.84h.87v.84h-.87Z"/>
    <path class="cls-1" d="M44.63,93.77v-1c.31.17.63.27,1.03.27.66,0,1.04-.41,1.04-1.18,0-.53-.14-.93-.57-1.66l-.63-1.09c-.34-.58-.57-1.12-.57-1.72,0-.91.63-1.56,1.63-1.56.32,0,.62.06.86.16v.93c-.24-.1-.46-.18-.75-.18-.48,0-.76.27-.76.72,0,.41.18.76.44,1.21l.6,1.05c.43.71.74,1.4.74,2.21,0,1.27-.72,2.05-1.95,2.05-.44,0-.8-.08-1.12-.22Z"/>
    <path class="cls-1" d="M51.49,93.87v-7.02h-1.32v-.91h3.61v.91h-1.32v7.02h-.96Z"/>
    <path class="cls-1" d="M59.19,93.87l-.24-.98h-2.13l-.24.98h-.98l2.22-8.32h.14l2.22,8.32h-.99ZM57.04,92.05h1.7l-.85-3.48-.85,3.48Z"/>
    <path class="cls-1" d="M65.58,85.95h.96v7.93h-.96v-5.05l-1.61-1.22v6.27h-.96v-8.04h.1l2.47,1.85v-1.73Z"/>
    <path class="cls-1" d="M73.26,91.42c0,1.48-.95,2.46-2.54,2.46h-.78v-7.93h.87c1.27,0,2.07.76,2.07,1.83,0,.7-.32,1.29-.82,1.57.72.35,1.19,1.12,1.19,2.06ZM70.95,86.85h-.08v2.16h.1c.59,0,1.01-.41,1.01-1.1,0-.65-.43-1.06-1.03-1.06ZM70.91,92.96c.84,0,1.39-.59,1.39-1.58,0-.92-.57-1.55-1.36-1.55h-.07v3.14h.03Z"/>
    <path class="cls-1" d="M76.25,91.82v-5.88h.96v5.88c0,.78.28,1.22.86,1.22s.86-.44.86-1.22v-5.88h.96v5.88c0,1.35-.69,2.16-1.82,2.16s-1.82-.82-1.82-2.16Z"/>
    <path class="cls-1" d="M83.31,93.87v-7.93h.96v6.99h1.86v.94h-2.82Z"/>
  </g>
  <g>
    <rect class="cls-3" x="62.18" y="16.41" width="1.65" height="9.03"/>
    <rect class="cls-3" x="58.49" y="20.1" width="9.03" height="1.65"/>
    <rect class="cls-3" x="58.49" y="20.1" width="9.03" height="1.65" transform="translate(3.66 50.68) rotate(-45)"/>
    <rect class="cls-3" x="62.18" y="16.41" width="1.65" height="9.03" transform="translate(3.66 50.68) rotate(-45)"/>
  </g>
  <path class="cls-2" d="M73.06,6.64c-2.82-2.1-6.05-3.17-9.27-3.31-1.04-.04-2.08.01-3.1.15-5.44.77-10.47,4.16-12.95,9.65-2.4,5.31-2.21,10.6.79,15.58,1.84,3.06,3.77,6.07,5.73,9.06h0s4.37,6.78,4.37,6.78h9.2l-4.81-7.51-1.08-1.68c-.42-.66-.84-1.32-1.26-1.97-.46-.71-.92-1.42-1.38-2.13l-.17-.26c-1.33-2.04-2.66-4.07-3.91-6.15-1.61-2.68-1.72-5.53-.42-8.38,2.37-5.23,9.02-6.92,13.62-3.49,3.68,2.75,4.79,7.73,2.51,11.72-1.09,1.9-2.36,3.71-3.54,5.56-.11.18-.23.35-.34.53h0l-2.79,4.35-1.22,1.9h9.22c1.87-2.85,3.79-5.67,5.47-8.61,4.24-7.42,2.19-16.68-4.66-21.79Z"/>
</svg>